<?xml version="1.0" encoding="UTF-8" standalone="no"?>
<svg
   xmlns:dc="http://purl.org/dc/elements/1.1/"
   xmlns:cc="http://creativecommons.org/ns#"
   xmlns:rdf="http://www.w3.org/1999/02/22-rdf-syntax-ns#"
   xmlns:svg="http://www.w3.org/2000/svg"
   xmlns="http://www.w3.org/2000/svg"
   xmlns:xlink="http://www.w3.org/1999/xlink"
   xmlns:sodipodi="http://sodipodi.sourceforge.net/DTD/sodipodi-0.dtd"
   xmlns:inkscape="http://www.inkscape.org/namespaces/inkscape"
   width="130"
   height="32"
   viewBox="0 0 130 32"
   fill="none"
   version="1.1"
   id="svg19"
   sodipodi:docname="javascript.svg"
   inkscape:version="0.92.5 (2060ec1f9f, 2020-04-08)">
  <metadata
     id="metadata23">
    <rdf:RDF>
      <cc:Work
         rdf:about="">
        <dc:format>image/svg+xml</dc:format>
        <dc:type
           rdf:resource="http://purl.org/dc/dcmitype/StillImage" />
        <dc:title></dc:title>
      </cc:Work>
    </rdf:RDF>
  </metadata>
  <sodipodi:namedview
     pagecolor="#ffffff"
     bordercolor="#666666"
     borderopacity="1"
     objecttolerance="10"
     gridtolerance="10"
     guidetolerance="10"
     inkscape:pageopacity="0"
     inkscape:pageshadow="2"
     inkscape:window-width="1294"
     inkscape:window-height="704"
     id="namedview21"
     showgrid="false"
     inkscape:zoom="5.2761044"
     inkscape:cx="70.58821"
     inkscape:cy="6.1922257"
     inkscape:window-x="72"
     inkscape:window-y="27"
     inkscape:window-maximized="1"
     inkscape:current-layer="svg19" />
  <defs
     id="defs17">
    <linearGradient
       id="paint0_linear"
       x1="0"
       y1="0"
       x2="0"
       y2="32"
       gradientUnits="userSpaceOnUse">
      <stop
         stop-color="#BBBBBB"
         stop-opacity="0.1"
         id="stop12" />
      <stop
         offset="1"
         stop-opacity="0.1"
         id="stop14" />
    </linearGradient>
    <linearGradient
       inkscape:collect="always"
       xlink:href="#paint0_linear"
       id="linearGradient38"
       gradientUnits="userSpaceOnUse"
       x1="0"
       y1="0"
       x2="0"
       y2="32" />
  </defs>
  <g
     id="g868">
    <path
       id="path2"
       d="M 125,0 H 31 v 32 h 94 c 2.761,0 5,-2.2386 5,-5 V 5 c 0,-2.76142 -2.239,-5 -5,-5 z"
       inkscape:connector-curvature="0"
       style="fill:#0f1418" />
    <path
       style="opacity:1;fill:#d3b72f;fill-opacity:0.34901962"
       id="path4"
       d="M 31,0 H 5 C 2.23858,0 0,2.23858 0,5 v 22 c 0,2.7614 2.23858,5 5,5 h 26 z"
       inkscape:connector-curvature="0" />
    <text
       id="text4553"
       y="19.955555"
       x="39.553078"
       style="font-style:normal;font-weight:normal;font-size:14.45731735px;line-height:1.25;font-family:sans-serif;letter-spacing:0px;word-spacing:0px;fill:#ffffff;fill-opacity:1;stroke:none;stroke-width:0.36143294"
       xml:space="preserve"><tspan
         style="font-style:normal;font-variant:normal;font-weight:600;font-stretch:normal;font-size:13.33333302px;font-family:'Fira Code';-inkscape-font-specification:'Fira Code Semi-Bold';fill:#ffffff;stroke-width:0.36143294"
         y="19.955555"
         x="39.553078"
         id="tspan4551"
         sodipodi:role="line">JavaScript</tspan></text>
    <g
       transform="translate(-0.10114408,1.1174123)"
       id="g47">
      <rect
         style="fill:none;stroke:none;stroke-width:0.95052838"
         id="rect36"
         width="24.049473"
         height="24.049471"
         x="3.5764077"
         y="2.8578522" />
      <g
         id="g4797"
         transform="matrix(0.11468215,0,0,0.11468215,41.053566,23.634811)">
        <path
           style="fill:#eaeaea;stroke-width:0.05869946"
           d="m -222.18084,-2.9804891 c -0.0602,-0.023668 -0.19187,-0.044887 -0.29261,-0.047153 -0.26165,-0.00589 -51.97551,-14.5982909 -52.06161,-14.6905249 -0.0726,-0.07781 -11.78475,-128.872563 -11.85178,-130.330603 -0.0178,-0.38742 -0.0494,-0.90911 -0.0703,-1.15932 l -0.0379,-0.45492 h 53.79678 c 29.58823,0 58.63848,0.0176 64.55611,0.0391 l 10.75933,0.0391 -0.0383,0.38647 c -0.0211,0.21255 -0.0637,0.87514 -0.0947,1.4724 -0.031,0.59727 -2.67026,30.06209 -5.86495,65.477384 -4.56643,50.621877 -5.82643,64.404527 -5.89219,64.452614 -0.10214,0.07468 -52.07281,14.7323247 -52.4969,14.8060571 -0.1658,0.028827 -0.3507,0.033048 -0.4109,0.00939 z m 23.16488,-36.5305029 c 9.41099,-2.448296 17.13883,-4.485296 17.17296,-4.526673 0.0341,-0.04138 0.0946,-0.493175 0.13436,-1.003996 0.0678,-0.87063 1.4326,-17.490412 2.77478,-33.788809 0.3265,-3.964614 0.58398,-7.217838 0.57219,-7.229384 -0.0118,-0.01155 -5.75343,0.62131 -12.75921,1.406351 -8.90121,0.997438 -12.75988,1.409151 -12.81116,1.366928 -0.0582,-0.04796 -0.0734,-2.383714 -0.0734,-11.320069 0,-6.961406 0.0211,-11.272656 0.0552,-11.293736 0.0303,-0.0187 6.17769,-0.0606 13.66078,-0.0929 7.4831,-0.0324 13.62372,-0.078 13.64583,-0.10145 0.0647,-0.0686 1.12687,-15.10385 1.07043,-15.15235 -0.0682,-0.0586 -41.00024,0.1532 -41.05759,0.21246 -0.0531,0.0549 0.48749,55.755207 0.54164,55.809363 0.0204,0.0204 5.61413,-0.919996 12.4305,-2.089788 8.02428,-1.377084 12.41351,-2.106777 12.45046,-2.069831 0.0369,0.03694 -0.005,2.249709 -0.12008,6.276721 -0.1444,5.070841 -0.19211,6.230977 -0.25829,6.280889 -0.0446,0.03368 -5.69012,1.550663 -12.54551,3.371086 -6.8554,1.820429 -12.48258,3.324931 -12.50484,3.343345 -0.0223,0.01841 0.0101,2.991935 0.072,6.607821 0.0618,3.615887 0.11308,7.006579 0.11385,7.534868 l 0.001,0.960528 0.16142,-0.02495 c 0.0888,-0.01372 7.86133,-2.028101 17.27232,-4.476391 z"
           id="path4811"
           inkscape:connector-curvature="0" />
        <path
           style="fill:#f3edd1;stroke-width:0.05869946"
           d="m -222.17762,-2.979362 c -0.062,-0.024284 -0.18344,-0.046015 -0.26993,-0.04828 -0.1313,-0.00346 -1.99892,-0.5189795 -6.71058,-1.8523612 -0.38741,-0.1096388 -1.21948,-0.3444366 -1.84903,-0.5217794 -0.62955,-0.177337 -5.79364,-1.6334239 -11.47575,-3.235743 -5.6821,-1.6023194 -10.84619,-3.0585594 -11.47574,-3.2360834 -1.36823,-0.385826 -0.80641,-0.22742 -11.73989,-3.31001 -4.82656,-1.360806 -8.80052,-2.498243 -8.83102,-2.527639 -0.0305,-0.0294 -0.67045,-6.822374 -1.42211,-15.095499 -0.75165,-8.273125 -3.39003,-37.309685 -5.86305,-64.525688 -2.47303,-27.216005 -4.51952,-49.919485 -4.54776,-50.452185 -0.0282,-0.53269 -0.0697,-1.17344 -0.0922,-1.42387 l -0.0408,-0.45533 53.64528,0.0138 c 29.50491,0.008 58.5554,0.0217 64.55664,0.0314 l 10.91137,0.0176 -0.0413,0.39458 c -0.0227,0.21702 -0.0648,0.84363 -0.0934,1.39247 -0.0286,0.54884 -0.18457,2.45071 -0.34651,4.22636 -0.16193,1.77566 -0.54665,6.02844 -0.85493,9.45062 -0.30829,3.42217 -0.70476,7.82023 -0.88106,9.77346 -0.1763,1.95322 -0.46581,5.16261 -0.64338,7.13198 -0.17756,1.96937 -0.46813,5.19197 -0.64569,7.16133 -0.17757,1.96937 -0.46813,5.19197 -0.6457,7.16134 -0.17756,1.96936 -0.46812,5.191964 -0.64569,7.16133 -0.17757,1.969367 -0.46813,5.191967 -0.64569,7.161334 -0.17757,1.969367 -0.46813,5.191967 -0.6457,7.161334 -0.17756,1.969366 -0.46933,5.205174 -0.64836,7.190683 -0.41443,4.596009 -0.88377,9.801389 -1.29139,14.322667 -0.35168,3.900638 -0.79122,8.775698 -1.29006,14.307969 -0.1783,1.977426 -0.46946,5.206624 -0.64702,7.175991 -0.17757,1.969367 -0.46873,5.198576 -0.64704,7.176026 -0.1783,1.97745 -0.46919,5.206665 -0.64642,7.176032 -0.52637,5.848943 -0.56216,6.220317 -0.60375,6.263438 -0.0378,0.03922 -1.18846,0.368838 -7.64098,2.188838 -2.54776,0.718622 -4.39337,1.239632 -12.09209,3.41359 -5.72817,1.617517 -7.48007,2.112106 -10.15501,2.8669172 -1.53352,0.4327265 -4.29386,1.2119265 -6.13409,1.7315459 -1.84023,0.5196252 -4.50812,1.2728625 -5.92864,1.673856 -1.42053,0.4009995 -4.18087,1.1805752 -6.1341,1.7323912 -4.48998,1.2684894 -4.64072,1.3065971 -4.84743,1.2255857 z m -4.72058,-75.158361 v -43.114747 h -6.30098 -6.30098 l -0.0385,10.52187 c -0.0212,5.78704 -0.0551,20.282134 -0.0753,32.211331 -0.0202,11.929197 -0.0533,22.38944 -0.0734,23.244984 l -0.0366,1.555536 -0.20545,-0.01326 c -0.113,-0.0073 -5.71046,-1.515807 -12.4388,-3.352261 l -12.23335,-3.339001 0.0336,7.627495 c 0.0185,4.195127 0.0424,7.634041 0.0532,7.642036 0.0342,0.02536 37.46652,10.121846 37.54324,10.126407 0.0586,0.0035 0.0734,-8.655405 0.0734,-43.110395 z m 27.85289,38.632965 c 16.42419,-4.276614 17.20086,-4.484768 17.24139,-4.620862 0.0487,-0.16342 3.47483,-41.902126 3.44225,-41.934592 -0.0118,-0.01174 -5.75343,0.620969 -12.75921,1.406016 -8.86034,0.99286 -12.76012,1.409069 -12.81116,1.367275 -0.0582,-0.04768 -0.0734,-2.383181 -0.0734,-11.319723 0,-6.793326 0.0214,-11.272886 0.054,-11.293036 0.0297,-0.0184 6.17681,-0.0599 13.66022,-0.0924 7.4834,-0.0324 13.62472,-0.0784 13.64736,-0.10215 0.0657,-0.0689 1.12816,-15.10331 1.07089,-15.15322 -0.047,-0.0409 -41.04376,0.14236 -41.08509,0.18369 -0.0361,0.0361 0.53222,55.801823 0.56906,55.838657 0.0209,0.02084 5.61507,-0.919075 12.4316,-2.088709 7.81625,-1.341171 12.41425,-2.106031 12.44937,-2.070911 0.0351,0.03513 -0.01,2.35305 -0.12125,6.275929 -0.14289,5.023035 -0.19233,6.231904 -0.2569,6.280853 -0.044,0.03334 -5.68928,1.549918 -12.54513,3.370165 -6.85585,1.820252 -12.48383,3.325177 -12.50661,3.344284 -0.0228,0.01911 0.01,3.019453 0.0723,6.667442 0.0626,3.647989 0.11423,7.035529 0.1148,7.527871 9.3e-4,0.813674 0.0104,0.895008 0.10376,0.893447 0.0565,-9.4e-4 7.84225,-2.016978 17.30166,-4.480066 z"
           id="path4809"
           inkscape:connector-curvature="0" />
        <path
           style="fill:#efe1a1;stroke-width:0.05869946"
           d="m -222.52509,-3.0574323 c -0.16142,-0.045745 -11.87637,-3.3486748 -26.03321,-7.3398447 -14.15684,-3.99117 -25.78588,-7.270286 -25.8423,-7.286927 -0.0564,-0.01664 -0.11584,-0.08793 -0.13203,-0.158418 -0.0352,-0.152982 -11.75022,-129.162168 -11.8291,-130.264848 -0.03,-0.41971 -0.0723,-0.9454 -0.094,-1.16821 l -0.0394,-0.40512 64.53384,0.0432 c 35.49361,0.0238 64.54008,0.0494 64.54771,0.057 0.0272,0.027 -0.18476,2.39138 -5.97452,66.651436 -4.33629,48.12813 -5.87706,65.021247 -5.93534,65.075532 -0.10329,0.09623 -52.28299,14.8215068 -52.63665,14.8542376 -0.14936,0.013824 -0.40364,-0.012298 -0.56506,-0.058048 z m 1.64359,-10.4905557 c 0.0792,-0.03391 0.0505,-0.03842 -0.0881,-0.01389 -0.113,0.02001 -0.24507,0.06013 -0.2935,0.08915 -0.10423,0.06246 0.20003,0.0025 0.38155,-0.07526 z m 0.41089,-0.108382 c 0.074,-0.0318 0.0848,-0.05045 0.0293,-0.05045 -0.0484,0 -0.14088,0.0227 -0.20545,0.05045 -0.074,0.0318 -0.0848,0.05045 -0.0293,0.05045 0.0484,0 0.14088,-0.0227 0.20545,-0.05045 z m 0.30695,-0.09417 c -0.0195,-0.01951 -0.0701,-0.02159 -0.11251,-0.0046 -0.0468,0.01874 -0.0329,0.03265 0.0355,0.03547 0.0619,0.0025 0.0966,-0.01133 0.077,-0.03083 z m 0.33875,-0.08193 c 0.074,-0.0318 0.0848,-0.05045 0.0293,-0.05045 -0.0484,0 -0.14088,0.0227 -0.20545,0.05045 -0.074,0.0318 -0.0848,0.05045 -0.0293,0.05045 0.0484,0 0.14088,-0.0227 0.20545,-0.05045 z m 0.30695,-0.09417 c -0.0195,-0.01951 -0.0701,-0.02159 -0.11251,-0.0046 -0.0468,0.01874 -0.0329,0.03265 0.0355,0.03547 0.0619,0.0025 0.0966,-0.01133 0.0771,-0.03083 z m 0.64569,-0.176099 c -0.0195,-0.01951 -0.0701,-0.02159 -0.11251,-0.0046 -0.0468,0.01874 -0.0329,0.03265 0.0355,0.03547 0.0619,0.0025 0.0966,-0.01133 0.077,-0.03083 z m -7.96723,-64.03499 v -43.173451 h -6.35944 -6.35945 l -0.0387,13.134 c -0.0213,7.2237 -0.0536,22.365965 -0.0717,33.649468 -0.0181,11.283503 -0.0451,20.574893 -0.0599,20.647533 -0.0148,0.07264 -0.0678,0.132074 -0.1179,0.132074 -0.0501,0 -5.61173,-1.505641 -12.35925,-3.345869 -6.74752,-1.840228 -12.31008,-3.345869 -12.36124,-3.345869 -0.0846,0 -0.0892,0.688738 -0.0503,7.644941 0.0235,4.204718 0.0525,7.654732 0.0644,7.666695 0.0329,0.03289 37.4925,10.149095 37.61082,10.157037 0.0977,0.0066 0.10272,-2.085492 0.10272,-43.166559 z m 27.81282,38.687303 c 9.46967,-2.465765 17.2334,-4.499037 17.25274,-4.518379 0.0193,-0.01934 0.307,-3.343621 0.63924,-7.387285 0.33225,-4.043665 1.11002,-13.502501 1.72839,-21.01963 0.62653,-7.616389 1.10193,-13.689136 1.07377,-13.716349 -0.0278,-0.02685 -5.76935,0.59253 -12.75899,1.37642 -6.98964,0.783885 -12.74145,1.41292 -12.78181,1.397852 -0.0583,-0.02178 -0.0734,-2.327375 -0.0734,-11.258595 0,-7.045448 0.0208,-11.244078 0.0559,-11.265738 0.0307,-0.019 6.17822,-0.061 13.6611,-0.0933 7.48288,-0.0323 13.62249,-0.0778 13.64356,-0.101 0.0655,-0.0722 1.13032,-15.21852 1.07338,-15.26771 -0.0689,-0.0596 -41.11873,0.15086 -41.17722,0.21105 -0.0558,0.0574 0.49044,55.874749 0.54736,55.931664 0.0228,0.0228 5.61855,-0.915571 12.43502,-2.085269 7.16014,-1.22868 12.41543,-2.104857 12.44535,-2.074938 0.0834,0.08338 -0.28503,12.357186 -0.37343,12.441086 -0.0397,0.03767 -5.67209,1.554531 -12.51645,3.37081 -6.84436,1.816284 -12.47551,3.331124 -12.51368,3.36632 -0.0534,0.04921 -0.042,1.791854 0.0492,7.548169 0.0652,4.116299 0.12866,7.517199 0.14093,7.557555 0.0123,0.04036 0.0694,0.07271 0.12689,0.07191 0.0575,-8.22e-4 7.85247,-2.018915 17.32213,-4.48468 z"
           id="path4807"
           inkscape:connector-curvature="0" />
        <path
           style="fill:#ecd25c;stroke-width:0.05869946"
           d="m -222.37834,-3.0581074 c -0.113,-0.041741 -11.85436,-3.3585598 -26.09191,-7.3707026 -14.23755,-4.012143 -25.9176,-7.324002 -25.95565,-7.359685 -0.0455,-0.04267 -2.08131,-22.22949 -5.94685,-64.810387 -3.23271,-35.610028 -5.92892,-65.258368 -5.99157,-65.885208 -0.0626,-0.62684 -0.10729,-1.14488 -0.0992,-1.15119 0.008,-0.006 29.05164,0.002 64.54123,0.0179 l 64.52652,0.0293 -0.029,0.18266 c -0.0478,0.30136 -0.0114,-0.101 -6.04446,66.824334 -3.20517,35.555235 -5.85129,64.667859 -5.88026,64.694719 -0.0591,0.05482 -52.44695,14.8602139 -52.67671,14.8870337 -0.0807,0.00942 -0.2392,-0.017023 -0.3522,-0.058764 z m 6.38843,-11.7478916 c 16.25607,-4.457091 24.02811,-6.608045 23.99532,-6.640834 -0.0253,-0.02526 -3.03589,0.778114 -12.48042,3.330378 -13.12362,3.546492 -16.70295,4.519571 -16.83207,4.575969 -0.15193,0.06637 -0.17646,0.177613 -0.0392,0.177613 0.0511,0 2.46144,-0.649404 5.35633,-1.443126 z m 24.23679,-6.692865 c -0.0195,-0.01951 -0.0701,-0.02159 -0.11251,-0.0046 -0.0468,0.01874 -0.0329,0.03265 0.0355,0.03547 0.0619,0.0025 0.0966,-0.01133 0.077,-0.03083 z m -35.02768,-56.638859 v -43.232147 h -6.40008 c -5.06646,0 -6.40574,0.0153 -6.42724,0.0734 -0.0149,0.0404 -0.0603,15.22664 -0.10088,33.747306 -0.0405,18.520658 -0.0924,33.692577 -0.11518,33.71537 -0.0228,0.0228 -5.57523,-1.467439 -12.33873,-3.311635 -6.7635,-1.84419 -12.35575,-3.353077 -12.42721,-3.353077 h -0.12995 l 0.0389,7.671801 c 0.0248,4.903518 0.0597,7.692664 0.0966,7.729603 0.0651,0.06511 37.46594,10.178204 37.67171,10.18634 l 0.13207,0.0052 v -43.232149 z m 27.75554,38.746877 c 9.47044,-2.465653 17.24677,-4.510789 17.28073,-4.544752 0.0823,-0.08227 3.54142,-42.146139 3.47165,-42.21591 -0.0307,-0.03072 -5.32109,0.538357 -12.78973,1.375757 -7.00554,0.785481 -12.75716,1.416747 -12.78138,1.402823 -0.0683,-0.0393 -0.0549,-22.369252 0.0135,-22.411512 0.0451,-0.0279 19.52632,-0.13724 25.9599,-0.14572 l 1.3343,-0.002 0.0289,-0.13208 c 0.0571,-0.26098 1.10685,-15.24851 1.07054,-15.28482 -0.0476,-0.0476 -3.73082,-0.0371 -24.39791,0.0695 -13.25728,0.0684 -16.88387,0.10259 -16.92333,0.15964 -0.0276,0.0399 -0.0356,0.87826 -0.0176,1.86294 0.0179,0.98468 0.13954,13.33358 0.27024,27.441996 0.1307,14.108414 0.25201,25.895999 0.26959,26.194632 0.0268,0.455708 0.0477,0.54297 0.13014,0.54297 0.054,0 5.64293,-0.951553 12.41982,-2.114559 6.7769,-1.163007 12.34281,-2.093376 12.3687,-2.067483 0.0576,0.05762 -0.2865,12.291454 -0.34731,12.347043 -0.0238,0.02179 -5.66741,1.533899 -12.54127,3.360233 -6.87387,1.826333 -12.52133,3.354779 -12.54992,3.396544 -0.0286,0.04176 -0.0376,0.551399 -0.02,1.132524 0.0176,0.581124 0.0735,3.935798 0.12431,7.454831 0.0508,3.519032 0.10425,6.457673 0.11881,6.530314 0.0181,0.09008 0.0681,0.13171 0.15743,0.130935 0.072,-6.46e-4 7.8795,-2.018486 17.34994,-4.484134 z"
           id="path4805"
           inkscape:connector-curvature="0" />
        <path
           style="fill:#fbd63a;stroke-width:0.05869946"
           d="m -222.17583,-3.0264801 c -0.0307,-0.029373 -11.78391,-3.3596634 -26.11832,-7.4006459 -14.33441,-4.040982 -26.08294,-7.36691 -26.10785,-7.390948 -0.0249,-0.02404 -2.71362,-29.454641 -5.97493,-65.401349 -3.2613,-35.946707 -5.95392,-65.450097 -5.9836,-65.563097 -0.0297,-0.11299 -0.0644,-0.34412 -0.0772,-0.51362 l -0.0232,-0.30817 h 64.5181 64.5181 l -0.0436,0.36687 c -0.024,0.20178 -2.70566,29.82381 -5.95933,65.826722 -3.25367,36.002918 -5.93073,65.47474 -5.94902,65.492937 -0.0183,0.0182 -11.82569,3.361072 -26.23866,7.428616 -14.41297,4.0675377 -26.25126,7.4226577 -26.30732,7.4558112 -0.12552,0.074237 -0.1813,0.075752 -0.25321,0.00687 z m 8.06813,-12.2486449 c 23.46962,-6.427638 34.37449,-9.424263 34.82944,-9.571029 0.31112,-0.10037 0.38653,-0.234128 0.0996,-0.17675 -0.5783,0.115662 -42.22479,11.426595 -42.283,11.483809 -0.0664,0.06523 -0.003,0.234921 0.088,0.234921 0.0381,0 3.30774,-0.886931 7.26591,-1.970951 z m 15.32654,-24.121567 c 9.37871,-2.440841 17.07421,-4.459721 17.10111,-4.486394 0.077,-0.0764 3.53015,-42.262845 3.46471,-42.328283 -0.0355,-0.03554 -4.71011,0.466273 -12.79096,1.373097 -7.00423,0.78601 -12.75477,1.418355 -12.77899,1.405213 -0.0242,-0.01314 -0.044,-5.036836 -0.044,-11.163763 v -11.139868 l 2.56306,-0.0389 c 1.40968,-0.0214 4.89205,-0.0389 7.73861,-0.0389 2.84655,0 7.83717,-0.0176 11.09025,-0.0391 l 5.9147,-0.0391 0.0499,-0.12235 c 0.0274,-0.0673 0.29305,-3.53772 0.59026,-7.71205 0.41124,-5.7762 0.52402,-7.60603 0.47197,-7.65808 -0.10287,-0.10287 -41.26995,0.10217 -41.36921,0.20605 -0.10055,0.10521 0.45179,56.012391 0.55438,56.114986 0.0538,0.05379 2.89762,-0.415533 12.46342,-2.05687 6.81655,-1.169604 12.40312,-2.117166 12.4146,-2.10569 0.0433,0.04325 -0.32975,12.213472 -0.37574,12.259463 -0.0265,0.02648 -5.65816,1.539722 -12.51486,3.362769 -6.85669,1.823041 -12.49964,3.348763 -12.53989,3.390486 -0.0585,0.0606 -0.051,1.404925 0.0372,6.679552 0.0607,3.632029 0.11801,7.060353 0.1273,7.618503 0.0129,0.777897 0.0355,1.026295 0.0967,1.064016 0.0456,0.02811 0.20913,0.01574 0.38154,-0.02886 0.16597,-0.04294 7.97525,-2.075119 17.35395,-4.515954 z m -27.97029,-38.741031 v -43.261497 l -6.40551,-0.0149 c -5.07968,-0.0118 -6.41805,3e-4 -6.46607,0.0587 -0.0413,0.0502 -0.0834,10.79857 -0.13219,33.737775 -0.0394,18.515276 -0.092,33.686467 -0.11681,33.713763 -0.0248,0.0273 -5.59272,-1.462251 -12.37306,-3.310098 -7.03709,-1.917817 -12.37076,-3.343269 -12.42779,-3.32138 -0.0937,0.03594 -0.0973,0.517589 -0.0579,7.712551 0.0318,5.805664 0.059,7.692165 0.11187,7.747918 0.0812,0.08567 37.57468,10.225838 37.75009,10.209584 0.11728,-0.01087 0.1174,-0.05363 0.1174,-43.272376 z"
           id="path4803"
           inkscape:connector-curvature="0" />
        <path
           style="fill:#d6bd44;stroke-width:0.05869946"
           d="m -222.17583,-3.0264801 c -0.0307,-0.029373 -11.78391,-3.3596634 -26.11832,-7.4006459 -14.33441,-4.040982 -26.08294,-7.36691 -26.10785,-7.390948 -0.0249,-0.02404 -2.71362,-29.454641 -5.97493,-65.401349 -3.2613,-35.946707 -5.95392,-65.450097 -5.9836,-65.563097 -0.0297,-0.11299 -0.0644,-0.34412 -0.0772,-0.51362 l -0.0232,-0.30817 h 64.5181 64.5181 l -0.0436,0.36687 c -0.024,0.20178 -2.70566,29.82381 -5.95933,65.826722 -3.25367,36.002918 -5.93073,65.47474 -5.94902,65.492937 -0.0183,0.0182 -11.82569,3.361072 -26.23866,7.428616 -14.41297,4.0675377 -26.25126,7.4226577 -26.30732,7.4558112 -0.12552,0.074237 -0.1813,0.075752 -0.25321,0.00687 z m 8.06813,-12.2486449 c 23.46962,-6.427638 34.37449,-9.424263 34.82944,-9.571029 0.15335,-0.04947 0.2802,-0.120844 0.28189,-0.158606 0.002,-0.03776 2.25551,-25.440027 5.00848,-56.449482 3.24049,-36.500828 4.98579,-56.406718 4.94979,-56.454268 -0.0444,-0.0586 -5.37086,-0.0705 -26.41911,-0.0587 l -26.36349,0.0147 v 62.250775 62.250773 h 0.14675 c 0.0807,0 0.16788,0.03302 0.19369,0.07337 0.0258,0.04036 0.0759,0.07337 0.11141,0.07337 0.0355,0 3.30298,-0.886931 7.26115,-1.970951 z m -12.64375,-62.862598 v -43.261497 l -6.40551,-0.0149 c -5.07968,-0.0118 -6.41805,3e-4 -6.46607,0.0587 -0.0413,0.0502 -0.0834,10.79857 -0.13219,33.737775 -0.0394,18.515276 -0.092,33.686467 -0.11681,33.713763 -0.0248,0.0273 -5.59272,-1.462251 -12.37306,-3.310098 -7.03709,-1.917817 -12.37076,-3.343269 -12.42779,-3.32138 -0.0937,0.03594 -0.0973,0.517589 -0.0579,7.712551 0.0318,5.805664 0.059,7.692165 0.11187,7.747918 0.0812,0.08567 37.57468,10.225838 37.75009,10.209584 0.11728,-0.01087 0.1174,-0.05363 0.1174,-43.272376 z"
           id="path4801"
           inkscape:connector-curvature="0" />
        <path
           style="fill:#d3b72f;stroke-width:0.05869946"
           d="m -248.26097,-10.463719 c -14.34844,-4.049335 -26.09871,-7.373062 -26.11172,-7.38607 -0.013,-0.01301 -2.70903,-29.60274 -5.99118,-65.754966 -3.28214,-36.152225 -5.98224,-65.626585 -6.00023,-65.498565 -0.0299,0.21299 -0.0349,0.20159 -0.0587,-0.13423 l -0.026,-0.36697 64.49603,1e-4 64.49603,1.1e-4 -0.008,0.30817 c -0.007,0.2709 -0.0121,0.2835 -0.044,0.10413 -0.0202,-0.11326 -2.67111,29.03388 -5.95807,65.508591 -3.25697,36.141954 -5.92865,65.720821 -5.93705,65.730824 -0.0317,0.03775 -52.5972,14.8617627 -52.68123,14.85665 -0.0484,-0.00293 -11.82769,-3.3184446 -26.17613,-7.367774 z m 48.02307,-8.559044 c 11.60044,-3.177507 21.13722,-5.795115 21.19284,-5.81691 0.0556,-0.0218 0.11416,-0.122929 0.13008,-0.224737 0.0159,-0.101803 0.74428,-8.281225 1.61857,-18.176486 1.58416,-17.929591 1.93704,-21.912989 6.15916,-69.525774 1.22514,-13.8158 2.21424,-25.14112 2.198,-25.16739 -0.0162,-0.0263 -11.9273,-0.0478 -26.46904,-0.0478 h -26.43952 l -0.0388,0.15459 c -0.0213,0.085 -0.0222,1.68971 -0.002,3.56599 0.0203,1.87627 0.0372,29.83276 0.0377,62.125537 l 8.2e-4,58.71413 h 0.14047 c 0.0773,0 0.15567,0.03962 0.17426,0.08805 0.0186,0.04843 0.0725,0.08805 0.11976,0.08805 0.0473,0 9.57723,-2.599782 21.17766,-5.777289 z m -26.44014,-59.050197 c 0.0109,-31.93117 -0.003,-43.27623 -0.0512,-43.33487 -0.0547,-0.0659 -1.15996,-0.0794 -6.48426,-0.0794 -6.05264,0 -6.42147,0.006 -6.4733,0.10272 -0.0337,0.063 -0.083,13.1135 -0.12753,33.766865 -0.0399,18.515276 -0.0811,33.674105 -0.0916,33.686285 -0.0104,0.01218 -5.55115,-1.486857 -12.31271,-3.331194 -6.76156,-1.844337 -12.34754,-3.353341 -12.41329,-3.353341 -0.0705,0 -0.13586,0.05139 -0.15928,0.125182 -0.0694,0.218691 0.0396,15.427644 0.11098,15.475642 0.12372,0.08325 37.69652,10.21974 37.84069,10.208763 l 0.14675,-0.01118 z m 47.6981,-71.45798 c -11.82161,-0.008 -31.18362,-0.008 -43.0267,0 -11.84307,0.008 -2.17084,0.0148 21.49385,0.0148 23.66468,0 33.35447,-0.007 21.53285,-0.0148 z"
           id="path4799"
           inkscape:connector-curvature="0" />
      </g>
    </g>
  </g>
  <path
     d="M 125,0 H 5.0000001 C 2.2385801,0 2.0625007e-8,2.23858 2.0625007e-8,5 V 27 C 2.0625007e-8,29.7614 2.2385801,32 5.0000001,32 H 125 c 2.761,0 5,-2.2386 5,-5 V 5 c 0,-2.76142 -2.239,-5 -5,-5 z"
     id="path10"
     style="fill:url(#linearGradient38)"
     inkscape:connector-curvature="0" />
</svg>
