<?xml version="1.0" encoding="UTF-8" standalone="no"?>
<svg
   xmlns:dc="http://purl.org/dc/elements/1.1/"
   xmlns:cc="http://creativecommons.org/ns#"
   xmlns:rdf="http://www.w3.org/1999/02/22-rdf-syntax-ns#"
   xmlns:svg="http://www.w3.org/2000/svg"
   xmlns="http://www.w3.org/2000/svg"
   xmlns:xlink="http://www.w3.org/1999/xlink"
   xmlns:sodipodi="http://sodipodi.sourceforge.net/DTD/sodipodi-0.dtd"
   xmlns:inkscape="http://www.inkscape.org/namespaces/inkscape"
   width="130"
   height="32"
   viewBox="0 0 130 32"
   fill="none"
   version="1.1"
   id="svg19"
   sodipodi:docname="react.svg"
   inkscape:version="0.92.5 (2060ec1f9f, 2020-04-08)">
  <metadata
     id="metadata23">
    <rdf:RDF>
      <cc:Work
         rdf:about="">
        <dc:format>image/svg+xml</dc:format>
        <dc:type
           rdf:resource="http://purl.org/dc/dcmitype/StillImage" />
        <dc:title />
      </cc:Work>
    </rdf:RDF>
  </metadata>
  <sodipodi:namedview
     pagecolor="#ffffff"
     bordercolor="#666666"
     borderopacity="1"
     objecttolerance="10"
     gridtolerance="10"
     guidetolerance="10"
     inkscape:pageopacity="0"
     inkscape:pageshadow="2"
     inkscape:window-width="1294"
     inkscape:window-height="704"
     id="namedview21"
     showgrid="false"
     inkscape:zoom="3.7307692"
     inkscape:cx="60.543852"
     inkscape:cy="-2.0563609"
     inkscape:window-x="72"
     inkscape:window-y="27"
     inkscape:window-maximized="1"
     inkscape:current-layer="svg19" />
  <defs
     id="defs17">
    <linearGradient
       id="paint0_linear"
       x1="0"
       y1="0"
       x2="0"
       y2="32"
       gradientUnits="userSpaceOnUse">
      <stop
         stop-color="#BBBBBB"
         stop-opacity="0.1"
         id="stop12" />
      <stop
         offset="1"
         stop-opacity="0.1"
         id="stop14" />
    </linearGradient>
    <linearGradient
       inkscape:collect="always"
       xlink:href="#paint0_linear"
       id="linearGradient38"
       gradientUnits="userSpaceOnUse"
       x1="0"
       y1="0"
       x2="0"
       y2="32" />
  </defs>
  <g
     id="g155">
    <path
       id="path2"
       d="M 125,0 H 31 v 32 h 94 c 2.761,0 5,-2.2386 5,-5 V 5 c 0,-2.76142 -2.239,-5 -5,-5 z"
       inkscape:connector-curvature="0"
       style="fill:#0f1418" />
    <path
       style="fill:#52c0dd;fill-opacity:1"
       id="path4"
       d="M 31,0 H 5 C 2.23858,0 0,2.23858 0,5 v 22 c 0,2.7614 2.23858,5 5,5 h 26 z"
       inkscape:connector-curvature="0" />
    <text
       id="text4553"
       y="20.629059"
       x="59.850468"
       style="font-style:normal;font-weight:normal;font-size:17.45907021px;line-height:1.25;font-family:sans-serif;letter-spacing:0px;word-spacing:0px;fill:#ffffff;fill-opacity:1;stroke:none;stroke-width:0.43647677"
       xml:space="preserve"><tspan
         style="font-style:normal;font-variant:normal;font-weight:600;font-stretch:normal;font-size:13.33333302px;font-family:'Fira Code';-inkscape-font-specification:'Fira Code Semi-Bold';fill:#ffffff;stroke-width:0.43647677"
         y="20.629059"
         x="59.850468"
         id="tspan4551"
         sodipodi:role="line">React</tspan></text>
    <g
       transform="translate(0.3473835,-1.1569905)"
       id="g47">
      <rect
         id="rect24"
         width="24.352882"
         height="24.352882"
         x="2.9761753"
         y="4.9805493"
         style="fill:none;stroke:none;stroke-width:0.64711791" />
      <g
         id="g4661"
         transform="matrix(0.01524081,0,0,0.01524081,19.938982,17.012819)"
         style="fill:#ffffff">
        <path
           style="fill:#ffffff;stroke-width:0.60698277"
           d="m -56.202411,605.88052 c -14.617845,-1.30004 -35.031282,-5.50467 -50.192129,-10.33819 -49.71274,-15.84929 -105.09828,-48.3548 -159.21692,-93.44373 -11.89772,-9.91251 -25.50008,-21.97107 -37.40155,-33.15661 -4.37957,-4.11613 -8.22765,-7.48386 -8.55136,-7.48386 -0.32364,0 -3.84208,3.04323 -7.81866,6.7627 -52.68471,49.27808 -106.92354,87.09274 -158.36891,110.41278 -32.30615,14.64431 -57.44358,22.13781 -87.70901,26.14608 -9.13158,1.20936 -32.86274,1.05288 -41.27482,-0.27217 -19.44764,-3.06332 -35.79576,-9.05982 -49.4691,-18.14526 -32.64175,-21.68926 -55.20366,-63.01173 -64.5935,-118.30404 -10.41076,-61.30398 -5.46436,-136.91874 14.44099,-220.7572 l 2.35227,-9.90742 -1.40396,-0.53378 c -0.77218,-0.2936 -5.44966,-1.76614 -10.39441,-3.27231 -87.3307,-26.60168 -162.12819,-66.25034 -209.53702,-111.07135 -32.5996,-30.820215 -51.63391,-62.055306 -57.85767,-94.943999 -1.12349,-5.936899 -1.34042,-9.204773 -1.33676,-20.1371393 0.004,-11.9692753 0.14351,-13.6943811 1.6844,-20.8284927 3.90458,-18.077707 11.01884,-34.176104 22.71594,-51.402457 7.64072,-11.252526 14.29091,-19.117711 26.18441,-30.968346 16.46547,-16.406116 30.99919,-28.058186 53.16169,-42.621136 44.9294,-29.52305 106.21697,-56.32536 173.14183,-75.71846 2.42035,-0.70135 4.40063,-1.3714 4.40063,-1.48899 0,-0.1176 -1.20737,-5.22745 -2.68303,-11.35523 -10.32912,-42.89231 -16.94927,-86.60746 -19.22336,-126.93876 -0.91625,-16.24981 -0.38979,-55.48575 0.91808,-68.42193 3.78354,-37.42331 11.14425,-66.22694 23.34456,-91.35091 13.58609,-27.9777 31.14059,-47.17188 53.81109,-58.83728 11.49478,-5.9148 24.86871,-10.15493 38.52197,-12.21319 8.72682,-1.31559 30.06051,-1.50838 40.06086,-0.36202 52.11592,5.97413 111.48373,32.55544 175.11453,78.40562 22.88828,16.49253 54.10826,42.33852 73.85025,61.1382 2.89367,2.75556 5.58188,5.0101 5.97374,5.0101 0.39187,0 4.44318,-3.5206 9.00289,-7.82355 72.45742,-68.37749 147.76704,-115.24198 212.236564,-132.07292 16.679401,-4.35446 29.166675,-6.26744 44.309742,-6.78798 18.338284,-0.63039 33.028724,1.33146 48.3643861,6.45887 16.5650449,5.53846 29.1689209,13.42935 42.1266669,26.3742 4.701567,4.69693 10.515613,11.19051 12.920114,14.43018 40.25279,54.23495 51.706977,150.48472 31.902832,268.07999 -2.89986,17.21934 -7.110682,38.5096 -9.893819,50.02383 -0.950414,3.93202 -1.561645,7.24916 -1.358367,7.37142 0.203339,0.12227 6.242211,2.01587 13.419782,4.20802 107.444749,32.81526 189.429369,79.97123 233.372059,134.231091 23.39567,28.888738 34.71298,59.029196 33.50321,89.226467 -1.67139,41.721446 -28.20024,84.240043 -76.87965,123.217502 -45.874,36.7312 -111.08106,69.23865 -187.545412,93.49647 -6.831469,2.16723 -12.615044,4.14163 -12.852374,4.38757 -0.23733,0.24595 0.501914,4.27116 1.642738,8.94493 8.006528,32.8011 14.300089,73.22719 17.292575,111.07784 1.052811,13.31642 1.416273,49.76452 0.629501,63.12621 -2.8564,48.51085 -11.701231,86.02573 -27.679992,117.40352 -20.827278,40.89886 -52.857454,64.95663 -93.46715,70.2029 -8.711478,1.12541 -25.637556,1.53846 -33.691367,0.82222 z m 24.602892,-59.48601 c 19.282204,-2.6819 32.10119417,-10.98317 43.521575,-28.18349 14.170862,-21.34285 22.681914,-51.16925 26.673554,-93.47534 1.052751,-11.1578 1.056939,-53.66056 0.0067,-66.76811 -2.575853,-32.14447 -7.35044,-63.69659 -14.420576,-95.29629 -1.493905,-6.67681 -2.827932,-12.45389 -2.964443,-12.83799 -0.17645,-0.49627 -2.061252,-0.26817 -6.512075,0.78804 -20.0014779,4.74655 -64.64245,12.81171 -94.883302,17.14235 -17.198796,2.46295 -52.323494,6.62795 -69.415944,8.23111 -5.12858,0.48103 -9.39519,0.95776 -9.48138,1.05937 -0.0862,0.10155 -3.52135,4.96469 -7.63366,10.8069 -30.58379,43.44916 -59.86932,80.82564 -90.99903,116.14008 -5.84907,6.63536 -11.03786,12.62397 -11.53073,13.3081 -0.84444,1.17215 -0.63466,1.48711 3.64189,5.46801 33.05465,30.76904 61.14028,53.34577 90.04061,72.37947 46.04238,30.32341 88.441402,48.07425 122.388977,51.23949 7.763552,0.72388 16.356121,0.72322 21.567979,0 z m -534.771901,-1.49318 c 51.56256,-7.92999 115.98833,-42.50694 180.27388,-96.75208 7.27281,-6.1369 28.0681,-24.90523 30.88887,-27.87799 l 1.75375,-1.84827 -3.27121,-3.62514 c -15.28704,-16.94131 -20.26212,-22.56088 -29.3549,-33.15795 -24.46966,-28.51781 -55.14918,-67.57017 -75.22234,-95.75153 -3.26964,-4.59031 -6.17245,-8.34602 -6.45075,-8.34602 -3.37672,0 -45.12124,-4.20627 -63.10028,-6.35814 -28.28569,-3.38545 -71.88783,-10.40897 -98.56956,-15.87776 -8.97318,-1.83922 -16.52028,-3.11965 -16.77135,-2.84547 -0.25106,0.27423 -1.4449,4.73228 -2.65297,9.9068 -20.95376,89.75139 -23.39868,168.22777 -6.96853,223.67316 3.06755,10.35178 9.13672,23.5644 14.91661,32.47357 4.20754,6.48549 13.5886,15.84395 19.33124,19.2847 7.25987,4.3497 15.35662,6.77817 27.57982,8.27196 4.07794,0.49833 21.59561,-0.24365 27.61772,-1.16984 z m 258.62449,-173.73777 c 7.44288,-8.24835 27.2945,-31.62684 35.40433,-41.69432 15.46568,-19.19898 36.80288,-46.97239 36.37423,-47.34629 -0.11241,-0.0981 -5.94042,0.0929 -12.95107,0.42452 -15.78373,0.74659 -98.59573,0.93294 -123.09222,0.27697 l -18.0842,-0.48419 7.4302,9.58893 c 13.33086,17.20396 33.8751,42.35143 44.77645,54.80921 15.48716,17.69834 25.41449,28.53535 26.12806,28.5223 0.17736,-0.006 1.98374,-1.84692 4.01422,-4.09713 z m 57.91702,-148.21937 c 20.76925,-0.88419 49.32846,-2.39916 53.955,-2.86216 l 3.87886,-0.38817 8.00198,-12.19883 c 26.54232,-40.46342 53.27748,-85.14864 77.5696,-129.650007 10.899227,-19.966638 35.04749,-67.372417 35.04749,-68.8022253 0,-1.9529671 -19.203478,-39.2421647 -35.6816,-69.2863547 -13.54288,-24.692387 -31.61343,-55.766743 -46.06338,-79.211253 -14.80929,-24.02754 -38.73211,-60.63658 -39.87913,-61.02702 -0.3756,-0.12785 -7.3749,-0.65284 -15.55399,-1.16664 -42.66312,-2.68006 -77.48949,-3.59482 -120.48608,-3.16473 -38.29206,0.38305 -62.8592,1.28691 -96.04537,3.53368 l -10.46074,0.70821 -11.45262,17.35638 c -29.5637,44.8036 -51.75182,81.84309 -76.39183,127.523744 -10.90098,20.209552 -32.96449,63.8703686 -32.96449,65.2324379 0,0.9241921 16.056,33.4689691 23.21679,47.0593741 23.25925,44.143554 47.3725,85.538254 73.19089,125.645434 11.92661,18.52718 24.00993,36.57381 25.04703,37.40817 1.22337,0.98422 45.979,3.31339 78.54611,4.08772 16.47764,0.39175 91.84044,-0.17263 106.52548,-0.79776 z m -81.09624,-95.0498 c -20.28906,-2.9614 -40.99149,-11.64848 -56.44684,-23.68598 -25.60691,-19.94418 -42.06725,-48.215495 -46.44881,-79.777871 -1.01731,-7.328346 -1.0099,-24.66705113 0.014,-32.1700865 7.29095,-53.4388235 49.73155,-95.9995125 103.15945,-103.4514225 8.62443,-1.2029 24.48125,-1.21337 32.86654,-0.0217 25.95616,3.68874 48.7432,14.829717 67.5922,33.047012 43.82227,42.353655 49.06727,110.42307 12.27841,159.349098 -4.82053,6.410831 -13.91046,15.749807 -20.68931,21.25605 -16.53433,13.43028 -37.26297,22.34929 -59.1813,25.4642 -7.85175,1.11582 -25.46967,1.1109 -33.14411,-0.009 z m -180.70842,83.87058 c -18.28119,-27.90063 -48.21787,-79.01229 -67.91885,-115.95963 -4.43432,-8.31615 -8.29963,-15.144706 -8.58958,-15.17457 -1.00975,-0.104036 -18.03763,43.08042 -27.26299,69.14171 -6.07366,17.15789 -14.39513,42.39016 -14.39513,43.64874 0,1.12158 -0.42766,1.00862 16.08504,4.24888 29.04572,5.69957 49.16542,8.99973 75.87285,12.44521 10.34905,1.33512 19.49932,2.53864 20.33392,2.67449 0.8346,0.1359 2.70972,0.28425 4.16694,0.32971 l 2.64949,0.0827 z m 404.7491,-0.41275 c 32.849905,-3.80961 111.3813345,-17.92906 111.3813345,-20.02564 0,-0.89912 -11.1938546,-33.04323 -16.2675025,-46.71345 -7.614234,-20.51547 -26.407149,-66.768107 -27.128609,-66.768107 -0.105615,0 -4.082019,7.306555 -8.836394,16.236789 -16.579552,31.141618 -39.672454,71.256018 -59.188349,102.815108 -5.15279,8.3326 -9.36871,15.28583 -9.36871,15.45172 0,0.16583 0.88771,0.15205 1.97269,-0.0309 1.08498,-0.18271 4.43097,-0.61731 7.43554,-0.96578 z m -576.29774,-46.73337 c 13.74414,-43.0497 34.30312,-96.150011 55.29963,-142.829596 l 5.41989,-12.0495187 -7.94128,-17.867509 C -650.02653,-52.275209 -665.5299,-92.198772 -679.69093,-135.0467 c -4.8057,-14.54088 -7.75675,-22.60529 -8.27386,-22.61011 -1.43869,-0.0134 -24.31895,7.08823 -40.06093,12.4342 -16.1356,5.47964 -42.52804,15.79515 -56.88058,22.23183 -35.20347,15.78767 -67.34535,35.130187 -92.54379,55.691473 -7.32781,5.979327 -21.7672,20.246396 -26.79898,26.479199 -10.83987,13.427187 -17.93067,27.280051 -20.30012,39.6590397 -5.65882,29.5640673 17.75501,65.9613033 65.0051,101.0516443 32.03247,23.788934 74.30298,45.872724 121.39655,63.422414 13.99762,5.21629 48.59276,16.55066 49.69502,16.28147 0.29118,-0.0711 2.66237,-6.81011 5.26931,-14.97561 z m 767.524622,5.21411 C 136.91358,152.34688 183.21508,130.69356 219.36776,106.68672 261.6069,78.638167 287.91602,49.279989 295.34829,21.900392 297.10872,15.415146 297.24711,3.3521521 295.63581,-3.1654468 283.88542,-50.696082 211.48925,-104.15259 108.59341,-141.27546 c -21.09848,-7.61193 -47.874796,-16.08855 -48.872858,-15.47174 -0.276541,0.17094 -0.696938,1.19444 -0.934146,2.27445 -0.690018,3.1418 -12.440598,37.8375 -17.420345,51.43691 C 30.574818,-73.565578 18.001049,-42.694168 4.6537407,-12.898901 0.16728836,-2.8836854 -3.7807096,6.1419663 -4.1195881,7.1580555 -4.6798332,8.8380624 -4.0649596,10.460709 2.6656294,25.064047 25.026207,73.579573 44.026588,121.27889 58.227253,164.54802 c 2.208568,6.72938 4.286148,12.23519 4.616832,12.23519 0.330745,0 10.004533,-3.1276 21.497327,-6.95025 z M -580.02849,-75.721618 c 16.1957,-30.712382 39.25855,-70.734622 58.26517,-101.110752 5.36606,-8.57596 9.65737,-15.69176 9.53625,-15.81287 -0.79824,-0.79824 -61.41945,8.63604 -84.77613,13.19343 -12.86726,2.51068 -31.78365,6.61031 -32.13852,6.96519 -0.39104,0.39104 10.38588,32.91919 16.77568,50.63431 5.78789,16.04638 15.24606,40.487446 20.50906,52.997944 3.00572,7.144763 3.6068,8.176998 4.22545,7.256266 0.39669,-0.590351 3.81806,-6.945946 7.60304,-14.123518 z m 546.899618,0.303492 c 6.468918,-15.713801 10.328479,-25.612494 17.395154,-44.613234 5.59013,-15.03064 18.0353398,-51.5765 17.6763095,-51.90711 -0.3744476,-0.3448 -17.1510265,-3.9774 -30.5272875,-6.61001 -25.180619,-4.95585 -51.755113,-9.38313 -74.962374,-12.48863 -5.17452,-0.69243 -10.0228,-1.39315 -10.77394,-1.55714 -0.75114,-0.16399 -1.36571,-0.0277 -1.36571,0.30291 0,0.3306 4.46229,7.77893 9.91615,16.55185 19.468005,31.31534 41.149611,68.77856 58.367648,100.852194 7.293384,13.586071 7.826193,14.401371 8.527987,13.050106 0.411716,-0.79272 2.997402,-6.904126 5.746063,-13.580936 z M 21.121426,-242.64188 c 10.450604,-47.2316 16.151022,-95.03013 16.142524,-135.35716 -0.017,-79.68687 -20.734774,-134.40252 -55.412245,-146.34245 -8.632084,-2.97214 -15.061974,-3.76694 -27.431918,-3.39085 -14.748528,0.4484 -25.600773,2.4853 -42.792285,8.0318 -53.016122,17.10463 -116.237622,58.48002 -176.254742,115.35004 l -7.21005,6.83197 8.43008,9.30451 c 33.00427,36.42759 68.93546,81.53004 100.61419,126.29526 1.59267,2.25058 3.07826,4.20428 3.30138,4.34157 0.22313,0.13729 4.9125,0.70396 10.42087,1.25928 53.967198,5.44063 111.98783,14.64641 160.243445,25.42484 3.505325,0.78296 6.558327,1.25948 6.784428,1.05895 0.226162,-0.20054 1.650083,-5.96403 3.164323,-12.80776 z m -642.865266,7.57837 c 43.32692,-8.86371 87.98943,-15.67609 133.06621,-20.29662 10.01522,-1.02659 18.80724,-2.06752 19.53782,-2.31317 0.77956,-0.26212 5.54405,-6.25371 11.53266,-14.50291 30.00686,-41.33383 59.80789,-78.18646 92.35868,-114.21285 5.22503,-5.78296 9.57503,-10.71962 9.66668,-10.97037 0.26283,-0.71906 -18.82277,-18.16843 -32.64019,-29.84189 -64.42618,-54.42955 -128.72926,-89.59383 -179.36341,-98.08529 -5.14613,-0.86301 -9.73817,-1.11164 -20.03043,-1.08448 -12.51589,0.033 -13.7314,0.13719 -19.37553,1.66057 -10.81818,2.91989 -17.63619,6.87379 -25.49801,14.78677 -32.29307,32.50323 -42.40596,116.50029 -26.15066,217.20579 1.76681,10.94582 7.84834,40.75292 10.91529,53.49863 l 2.21109,9.18888 5.27659,-1.16462 c 2.90211,-0.64054 11.22406,-2.38134 18.49321,-3.86844 z m 263.871,-28.89793 c 26.55567,-0.71807 84.22292,-0.38664 108.34642,0.6227 6.34297,0.2654 11.6415,0.39229 11.77462,0.28199 0.3759,-0.31165 -2.18053,-3.80848 -12.20934,-16.70057 -17.33246,-22.28097 -35.1931,-43.74924 -52.55997,-63.17632 l -10.70578,-11.97577 -2.06235,1.96055 c -3.31236,3.14885 -27.57407,30.72955 -37.49854,42.6284 -16.05433,19.24803 -37.25515,46.15086 -37.25515,47.27495 0,0.26791 1.29743,0.33208 2.88317,0.14258 1.58574,-0.1895 14.76485,-0.66582 29.28692,-1.05851 z"
           id="path4675"
           inkscape:connector-curvature="0" />
        <path
           style="fill:#ffffff;stroke-width:0.60698277"
           d="m -57.442477,605.31153 c -29.886132,-2.69245 -69.143223,-15.12607 -101.947003,-32.28899 -50.12913,-26.22755 -94.61174,-58.67727 -143.98973,-105.03934 -4.1778,-3.92263 -7.91851,-7.13205 -8.31275,-7.13205 -0.39423,0 -3.70095,2.84985 -7.34819,6.33296 -21.81569,20.83383 -48.93792,43.21929 -74.34118,61.358 -58.06112,41.45741 -114.78896,67.19427 -164.79582,74.7662 -9.36711,1.41833 -12.52276,1.61348 -26.70725,1.65117 -12.64453,0.0334 -17.51317,-0.18737 -22.76185,-1.03339 -33.38871,-5.38151 -57.99822,-20.1293 -78.06598,-46.78277 -7.95795,-10.56951 -17.48326,-28.68388 -22.7065,-43.18118 -23.57982,-65.44658 -23.01624,-155.98134 1.63521,-262.68211 1.67886,-7.26674 2.92292,-13.54901 2.76459,-13.9606 -0.15832,-0.41166 -4.7609,-2.08493 -10.22794,-3.71844 -13.72044,-4.09956 -36.19516,-11.77358 -50.10157,-17.10732 -59.96321,-22.9984 -107.92192,-49.80974 -147.29144,-82.34347 -9.63232,-7.95979 -30.29585,-28.70039 -37.04709,-37.18522 -31.12876,-39.121982 -41.93591,-78.040988 -32.26486,-116.193073 13.54507,-53.434987 67.3456,-106.058507 150.54291,-147.249417 37.42776,-18.53045 78.67167,-34.39214 122.30702,-47.03715 2.50381,-0.72557 4.73679,-1.4986 4.96219,-1.71785 0.2254,-0.21925 -0.77652,-5.3152 -2.22651,-11.32433 -22.49779,-93.23723 -26.17217,-180.05313 -10.3302,-244.07529 10.63468,-42.97793 29.78151,-74.87554 56.45664,-94.05377 6.74666,-4.85056 18.88162,-10.8953 28.51522,-14.2042 64.94631,-22.30741 162.65877,12.03613 263.02904,92.44826 19.40602,15.54725 44.35994,37.23726 51.36282,44.64479 0.98052,1.03717 2.17706,1.88577 2.65907,1.88577 0.48194,0 4.73282,-3.63549 9.44641,-8.07888 57.08503,-53.81286 115.8948,-94.43458 170.02752,-117.44322 23.45418,-9.96899 43.607284,-15.92121 66.464616,-19.63035 9.435851,-1.53119 30.761947,-2.17191 40.221166,-1.20841 22.1543855,2.2566 41.050427,9.34606 58.110041,21.80184 6.208705,4.53319 18.804872,17.33531 24.305472,24.70297 23.558821,31.55503 37.152686,76.64145 40.695826,134.97438 0.916605,15.09132 0.380882,55.77676 -0.936271,71.10366 -3.12329,36.34263 -9.049202,74.13467 -17.113211,109.13768 -1.177,5.10896 -2.011419,9.62405 -1.854332,10.03352 0.157148,0.40948 2.980467,1.52082 6.274077,2.46966 46.217006,13.31453 97.315726,33.78175 134.668656,53.94052 71.31774,38.48904 118.42834,84.868324 133.62634,131.551897 1.14119,3.505325 2.80426,9.787597 3.6958,13.960603 1.47976,6.9264628 1.62228,8.7767284 1.63612,21.2443972 C 355.611,23.154479 355.24061,26.171244 351.96509,38.231506 335.08453,100.3846 264.02785,161.15086 155.41096,206.3207 c -17.83273,7.41599 -36.93466,14.40971 -58.653716,21.4748 -9.514455,3.09501 -17.599647,5.8572 -17.967054,6.13824 -0.473022,0.36182 -0.07496,2.94817 1.363344,8.85794 8.034752,33.01349 14.297661,73.07775 17.340405,110.92701 1.237699,15.39588 1.036848,65.81217 -0.31557,79.21125 -4.238197,41.98967 -12.230885,72.78792 -26.134371,100.70385 -20.227094,40.61261 -51.659393,64.78806 -92.044141,70.79367 -7.537694,1.12098 -28.23878,1.62313 -36.442334,0.88407 z m 30.071747,-59.1325 c 13.266579,-2.41846 24.057215,-8.4943 32.7014993,-18.41307 C 40.104387,487.86559 49.681543,396.42078 30.233754,289.9855 c -2.445897,-13.38615 -8.065465,-39.26905 -8.77521,-40.41746 -0.384584,-0.62234 -2.923532,-0.25475 -12.2142533,1.76832 -38.2074407,8.31973 -81.6827017,15.47229 -124.0205407,20.40397 -16.59588,1.93318 -41.87902,4.58806 -43.69286,4.58806 -0.40686,0 -3.84506,4.43856 -7.64034,9.86347 -30.64917,43.80904 -63.80979,85.95616 -97.22807,123.57677 -3.95656,4.4541 -7.09254,8.41467 -6.96883,8.80125 0.5393,1.68541 30.38992,28.3935 46.27321,41.40181 56.91713,46.61488 115.57291,77.92287 160.279438,85.55052 12.712222,2.16887 26.702932,2.4215 36.382972,0.65682 z m -549.92638,0.26064 c 48.92079,-3.36803 114.55361,-35.53666 179.3634,-87.9115 14.07332,-11.37316 37.27287,-31.85373 43.33602,-38.25716 l 1.75777,-1.85639 -2.97173,-3.32384 c -1.63442,-1.82817 -6.45787,-7.19317 -10.71877,-11.92229 -30.74095,-34.11905 -66.87384,-79.15511 -95.31244,-118.79758 -4.05495,-5.65247 -5.65595,-7.43615 -6.6762,-7.43815 -4.71529,-0.009 -42.59832,-3.86108 -65.7644,-6.68676 -27.85455,-3.39747 -69.38033,-10.1317 -94.30369,-15.29312 -8.1791,-1.69384 -15.59071,-3.20311 -16.47027,-3.35388 l -1.59919,-0.27411 -2.50661,10.47197 c -7.59425,31.72686 -13.215,65.91317 -16.26102,98.90213 -1.55943,16.88887 -1.56551,63.98096 -0.01,77.6938 6.25935,55.18141 21.90791,88.91502 47.16582,101.67544 8.44193,4.2649 15.41216,5.79766 31.25962,6.87402 0.66768,0.0455 5.03795,-0.18082 9.71172,-0.50258 z m 270.18029,-175.27022 c 8.07111,-8.93339 26.6747,-30.8388 35.18223,-41.42658 18.78078,-23.3729 36.97503,-47.2442 36.42662,-47.79261 -0.19302,-0.19302 -10.52787,-0.0303 -22.96629,0.36134 -27.61941,0.86993 -82.62455,0.90295 -110.86503,0.0666 -11.48108,-0.34004 -20.99402,-0.49888 -21.13994,-0.35296 -0.31818,0.31811 15.14798,20.28979 26.84849,34.66988 12.47562,15.33269 26.13874,31.35855 37.67754,44.19302 5.64609,6.28003 10.94851,12.22008 11.78312,13.20005 0.8346,0.97998 1.80674,1.78253 2.16031,1.78356 0.35357,0 2.5554,-2.11503 4.89295,-4.70229 z m 52.73454,-147.64158 c 19.53883,-0.74441 51.86376,-2.37992 57.96685,-2.93294 l 4.55237,-0.41245 6.85011,-10.3187 c 25.8191,-38.89279 57.40545,-91.79067 82.0929,-137.481602 11.062197,-20.47365 32.150052,-62.079406 32.150052,-63.4311561 0,-2.612029 -31.001462,-61.3442889 -49.339682,-93.4738899 -28.95861,-50.737232 -69.9266,-115.748802 -73.42179,-116.512092 -2.00013,-0.4368 -28.4468,-1.99148 -53.87051,-3.16682 -30.85943,-1.42663 -102.70707,-1.42945 -133.23272,-0.005 -24.81825,1.15792 -52.17854,2.75629 -54.09715,3.16032 -0.89536,0.18854 -4.62679,5.33111 -12.20406,16.81938 -29.49202,44.71453 -51.41358,81.27319 -76.5278,127.62588 -9.69314,17.890392 -33.49948,65.0443338 -33.49948,66.3534135 0,1.2403085 24.72056,49.8806305 34.29868,67.4862865 14.83184,27.26263 30.41984,54.15506 46.44199,80.12173 18.66065,30.24279 40.47828,63.05585 42.17334,63.42733 2.8876,0.63284 63.01416,3.11497 86.79854,3.5832 16.6848,0.3285 76.33937,-0.21269 92.86836,-0.84243 z m -68.89255,-95.317 c -42.21965,-3.17397 -80.12931,-28.888672 -98.66954,-66.92895 -13.99289,-28.710285 -16.20947,-60.65815545 -6.28378,-90.569356 15.4108,-46.440664 56.95046,-78.728894 105.77579,-82.218194 43.11331,-3.08109 84.59706,17.48875 108.89003,53.993495 25.1649,37.814845 26.11768,89.031323 2.38053,127.95998 -23.68502,38.843075 -66.98176,61.154485 -112.09303,57.763025 z m -186.95069,85.27762 c 0,-0.17638 -4.42071,-7.34637 -9.82381,-15.93329 -19.51586,-31.01585 -40.34466,-66.95463 -58.59866,-101.10834 -4.96982,-9.298673 -9.28709,-16.903014 -9.59395,-16.898583 -0.70865,0.01032 -15.85851,37.852843 -23.61798,58.995023 -6.81265,18.56238 -18.54818,53.45564 -18.54818,55.14924 0,1.02447 2.04375,1.55375 18.66472,4.83371 29.53004,5.8274 47.85035,8.68932 95.14455,14.86331 2.98525,0.38968 6.37331,0.4423 6.37331,0.0989 z m 402.42957,-1.53317 c 16.211299,-1.87497 53.474396,-7.74947 75.265866,-11.86555 15.165647,-2.86459 36.615871,-7.51517 37.1819431,-8.06133 C 5.1685835,191.52986 -1.941916,170.08115 -9.4571517,149.46899 -18.764625,123.94112 -37.725067,77.727693 -38.903403,77.697648 c -0.33384,-0.0085 -4.52542,7.327738 -9.314575,16.302707 -16.947748,31.760495 -39.059098,70.173885 -58.743062,102.052555 -5.46679,8.8537 -9.93965,16.32742 -9.93965,16.60827 0,0.28085 0.75114,0.38701 1.66921,0.23587 0.91806,-0.15114 4.26405,-0.57493 7.43553,-0.94173 z m -576.72717,-41.88218 c 17.17368,-52.8302 36.41963,-102.557325 58.92467,-152.247787 l 3.67878,-8.1226437 -5.22977,-11.6042966 c -15.05924,-33.4147657 -30.31089,-71.0263007 -41.62578,-102.6517127 -4.15494,-11.61316 -15.31894,-44.85567 -16.61311,-49.46806 -0.57939,-2.06493 -1.39542,-3.88565 -1.8134,-4.04604 -1.03536,-0.39731 -17.53173,4.60132 -39.10965,11.85077 -32.07334,10.77555 -63.12125,23.89381 -88.72517,37.48786 -73.20905,38.869337 -114.85927,84.934832 -110.4871,122.199689 4.41861,37.660732 47.71088,81.830625 116.0475,118.400121 31.81359,17.02459 64.44574,30.51709 105.80693,43.74816 8.07801,2.58405 14.96042,4.63923 15.29426,4.56706 0.33384,-0.0722 2.06717,-4.62308 3.85184,-10.11312 z m 758.822002,3.54041 C 153.03062,148.35827 215.10565,116.07134 256.21538,78.993799 c 27.6338,-24.923441 42.76242,-51.71475 41.19319,-72.949132 -1.36262,-18.437587 -11.29735,-36.654718 -30.97118,-56.79119 -33.66921,-34.460991 -89.14792,-66.349447 -159.05795,-91.424517 -21.497324,-7.71059 -46.777306,-15.72798 -47.732029,-15.13793 -0.241762,0.14941 -2.3991,6.34458 -4.794072,13.76702 C 41.332495,-101.6386 21.37739,-50.606249 0.62908085,-4.8708256 -2.5856212,2.2153948 -5.2158596,8.2682269 -5.2158596,8.580034 c 0,0.311807 2.8438963,6.703214 6.3197831,14.203154 22.5461315,48.648455 41.9971375,97.329082 56.8033885,142.163862 2.094759,6.34297 3.931306,11.74864 4.081353,12.01261 0.149985,0.26392 0.864282,0.29809 1.587381,0.0759 0.723038,-0.22222 5.548308,-1.76213 10.722836,-3.42199 z M -578.36008,-77.846057 c 17.47351,-32.798723 37.78333,-68.021423 56.3802,-97.778493 5.44319,-8.7097 10.07814,-16.30864 10.2999,-16.88653 0.34733,-0.90514 0.11859,-1.00242 -1.65084,-0.70207 -1.12973,0.19175 -7.38032,1.04878 -13.89021,1.9045 -23.25313,3.05659 -58.09032,8.90869 -79.21125,13.30625 -7.34449,1.52919 -15.49593,3.22396 -18.11429,3.76618 -2.61837,0.54221 -4.88598,1.31239 -5.03914,1.7115 -0.36084,0.94033 11.4216,36.30194 18.60307,55.83177 5.46643,14.86582 17.78591,46.267579 20.93105,53.352203 0.91126,2.052694 1.81266,3.347267 2.11314,3.034913 0.2882,-0.299606 4.59847,-8.192689 9.57837,-17.540223 z m 546.471759,0.580931 c 13.073377,-31.831204 35.3480053,-93.923114 34.0879697,-95.022244 -0.2393333,-0.20881 -4.9420536,-1.3601 -10.4504221,-2.55842 -25.8164946,-5.61629 -61.0443776,-11.84302 -89.5299576,-15.82496 -19.088389,-2.66832 -18.846749,-2.64529 -18.679289,-1.78043 0.0754,0.38957 4.28627,7.3517 9.35749,15.47142 18.79589,30.09497 42.297291,70.63939 58.166127,100.347668 8.942374,16.741253 9.082647,16.974698 9.781709,16.275636 0.300396,-0.300396 3.570273,-7.909307 7.266373,-16.90867 z M 19.05908,-231.70004 c 2.730027,-10.13841 8.292781,-38.43506 11.207209,-57.00851 5.262055,-33.53486 7.226494,-57.6311 7.254779,-88.987 0.02003,-22.31726 -0.499122,-31.66056 -2.71558,-48.86211 -5.70491,-44.27456 -19.347515,-76.01744 -39.0314195,-90.81606 -24.9428035,-18.75231 -68.8906005,-13.73569 -125.1649485,14.28754 -44.51757,22.16865 -89.33268,54.78311 -137.08487,99.7644 l -6.02369,5.67413 5.11322,5.67481 c 35.47347,39.36988 68.5133,80.41392 97.97727,121.71324 4.28706,6.00913 8.29327,11.4875 8.90268,12.17415 0.93196,1.05005 2.3869,1.37147 9.15494,2.02254 51.469893,4.95124 119.302705,15.65342 161.613531,25.49821 7.586434,1.7652 8.031353,1.70779 8.796879,-1.13534 z m -657.19978,0.54649 c 41.22114,-9.24878 97.74122,-18.29793 145.51768,-23.2981 11.5175,-1.20539 21.80108,-2.32623 22.8524,-2.49074 1.6584,-0.25951 2.82176,-1.56274 8.7867,-9.84307 29.6465,-41.15418 63.11079,-82.79836 93.70284,-116.60708 4.67377,-5.1652 9.41928,-10.44965 10.54566,-11.7432 l 2.0479,-2.35192 -1.44092,-1.54683 c -2.42149,-2.59951 -23.48744,-21.58694 -30.57608,-27.55926 -27.44637,-23.12405 -55.67034,-43.54158 -82.24617,-59.49776 -11.04177,-6.6295 -36.51869,-19.63066 -47.34465,-24.16051 -17.25051,-7.21804 -37.82144,-13.38352 -52.20052,-15.64546 -9.44087,-1.48512 -28.65763,-1.52839 -35.23152,-0.0793 -11.85985,2.61421 -20.89576,7.42531 -28.81022,15.33976 -29.8388,29.83881 -41.16314,103.05952 -29.99531,193.94328 2.60564,21.20471 8.20234,51.55025 14.17591,76.8624 1.19204,5.05111 2.16735,9.3531 2.16735,9.55998 0,0.66057 2.29345,0.40922 8.04895,-0.88215 z m 324.27411,-32.42923 c 23.03499,0 49.91383,0.24058 59.7308,0.53463 l 17.84894,0.53464 -2.05731,-2.86475 c -7.68319,-10.69873 -33.24238,-42.5249 -48.52263,-60.42026 -11.53783,-13.51242 -26.23646,-29.79914 -26.71816,-29.60487 -1.27364,0.51366 -26.19319,28.7238 -40.09237,45.38642 -10.45661,12.53563 -22.76829,27.90278 -31.79454,39.68522 l -5.98971,7.81862 17.85658,-0.53482 c 9.82111,-0.29416 36.7034,-0.53483 59.7384,-0.53483 z"
           id="path4673"
           inkscape:connector-curvature="0" />
        <path
           style="fill:#ffffff;stroke-width:0.60698277"
           d="m -594.89961,604.63954 c -26.08441,-1.29548 -48.68119,-9.22146 -67.0716,-23.52586 -15.7321,-12.23665 -27.65432,-27.42937 -37.93013,-48.33507 -13.94248,-28.3654 -21.85041,-61.95959 -24.62219,-104.5991 -0.94164,-14.48558 -0.42536,-54.68186 0.89789,-69.90845 3.19636,-36.7803 9.02763,-72.61844 17.96342,-110.40076 1.37261,-5.80366 2.27292,-10.77485 2.00068,-11.04702 -0.27223,-0.27223 -6.23095,-2.26647 -13.24161,-4.4317 -65.58167,-20.2549 -120.25654,-45.62229 -166.31327,-77.16421 -57.42991,-39.33084 -93.13008,-86.153187 -99.49588,-130.493339 -1.36923,-9.537217 -1.74698,-19.945697 -0.98029,-27.0107336 4.49626,-41.4330084 30.68743,-80.5062974 79.53526,-118.6545874 4.17301,-3.25896 13.86956,-10.10109 21.54789,-15.20472 46.48583,-30.89822 102.01118,-55.39002 174.65929,-77.04085 3.58088,-1.06719 5.3111,-1.87638 5.3111,-2.48391 0,-0.49559 -1.20926,-6.01794 -2.68724,-12.27189 -14.07081,-59.53933 -20.55209,-113.54112 -19.57717,-163.11651 1.00285,-50.99595 9.38711,-91.73991 25.53288,-124.07904 7.33018,-14.68195 14.61588,-25.1316 24.94325,-35.77531 13.40333,-13.81388 26.57689,-21.98605 45.61448,-28.29678 13.54681,-4.4906 31.29603,-6.52728 49.69479,-5.70235 47.74142,2.14054 105.10149,24.7923 166.31328,65.67792 29.08959,19.43001 63.74794,47.11057 91.6008,73.15871 3.97658,3.71895 7.46862,6.76172 7.75997,6.76172 0.29141,0 3.72985,-3.05143 7.64088,-6.78097 76.46417,-72.91457 160.37498,-123.5229 226.23862,-136.44918 15.62064,-3.06567 23.134905,-3.84479 37.019211,-3.83834 22.558635,0.0105 40.4688149,3.86884 56.957987,12.27038 34.299746,17.47635 58.563093,52.94337 71.442903,104.43168 15.836299,63.30715 12.875379,150.80808 -8.229351,243.19569 -1.505317,6.58937 -2.527416,12.19011 -2.271451,12.44609 0.255965,0.25597 5.517656,1.9958 11.692673,3.86628 66.873418,20.25674 122.978588,45.45652 167.525298,75.24441 43.3461,28.98506 71.87332,58.442078 87.99405,90.862144 14.58707,29.335781 17.01864,58.394717 7.35014,87.838601 -11.30397,34.424542 -39.19998,68.721135 -81.38358,100.056805 -44.73312,33.22951 -105.72511,62.66538 -176.587253,85.22432 -7.152989,2.2771 -13.250434,4.38527 -13.54998,4.68482 -0.321397,0.32139 0.828592,6.60731 2.806445,15.3407 24.254728,107.09537 22.824858,204.94463 -3.948058,270.17719 -20.90825,50.9431 -55.311608,79.71104 -101.833983,85.15307 -8.866926,1.03721 -24.763744,1.16328 -34.354375,0.27247 -31.231752,-2.90101 -67.354936,-14.74343 -104.683156,-34.31868 -46.04687,-24.14748 -90.61154,-56.88309 -138.54109,-101.7674 -4.91091,-4.59887 -9.14462,-8.35827 -9.40823,-8.35421 -0.26361,0.006 -4.30333,3.58764 -8.97709,7.96337 -60.68924,56.81948 -125.18243,99.0829 -184.23328,120.73094 -24.59738,9.01746 -50.4046,14.76996 -69.48552,15.48856 -4.67376,0.17603 -9.31718,0.38914 -10.3187,0.47357 -1.00153,0.0845 -5.64494,-0.0364 -10.31871,-0.26847 z M -28.298382,546.7431 c 13.498872,-2.37561 23.2257096,-7.57151 32.3691765,-17.29106 17.1754875,-18.25768 28.8227585,-49.51541 33.7891525,-90.68007 1.898884,-15.73882 2.448265,-26.36169 2.44262,-47.2306 -0.0085,-32.58375 -2.664776,-61.56948 -8.860917,-96.70001 -3.337312,-18.92153 -8.97685,-44.99848 -9.957977,-46.0451 -0.269257,-0.28723 -3.500166,0.19866 -7.19317,1.0817 -18.8861477,4.51583 -64.664909,12.80813 -93.861751,17.00195 -16.681343,2.39613 -51.433112,6.50425 -67.071592,7.92872 -5.84221,0.5322 -11.16849,1.09032 -11.83617,1.2403 -0.66768,0.14999 -2.16996,1.69616 -3.3384,3.43589 -5.24075,7.80313 -24.38857,34.26897 -34.51359,47.70411 -22.73005,30.16116 -44.17347,56.32994 -70.72162,86.30621 -2.21191,2.49756 -4.02169,4.71231 -4.02169,4.92172 0,0.50234 17.48954,16.64936 28.2247,26.05808 68.2268,59.79697 137.56597,97.48295 189.07513,102.76273 6.051436,0.62027 20.764151,0.33463 25.476098,-0.49457 z m -535.206408,-1.44699 c 59.03445,-10.47057 130.9137,-52.34097 200.92716,-117.04206 6.99287,-6.4623 10.02438,-9.64714 9.71173,-10.20289 -0.25002,-0.44438 -2.93519,-3.4924 -5.96707,-6.77345 -30.62428,-33.14101 -71.33188,-83.46316 -101.91847,-125.99013 -5.09927,-7.08987 -6.27687,-8.38232 -7.85746,-8.62377 -1.02259,-0.15624 -8.41466,-0.8499 -16.42683,-1.54156 -46.23222,-3.99085 -102.0371,-11.96278 -143.23551,-20.46175 -9.02053,-1.86083 -16.92705,-3.41452 -17.57004,-3.45264 -1.01351,-0.0601 -1.43713,1.06167 -3.18318,8.4285 -8.47626,35.76252 -14.04197,69.88539 -16.97914,104.09755 -1.32848,15.47405 -1.52109,55.97953 -0.32615,68.58905 4.39403,46.3679 15.19433,78.22921 32.74625,96.6027 9.1033,9.52939 19.11695,14.69439 33.37935,17.21689 7.08169,1.25245 27.52362,0.781 36.69936,-0.84644 z M -305.6367,369.95427 c 7.31742,-8.22784 22.28641,-25.71574 29.48371,-34.44506 13.40424,-16.25755 41.49765,-52.73096 41.49765,-53.87597 0,-0.42999 -2.43449,-0.51297 -7.50765,-0.25585 -25.05928,1.27011 -71.68897,1.74265 -106.60511,1.08043 -20.19735,-0.38313 -37.85102,-0.85251 -39.23039,-1.04322 -1.37931,-0.19065 -2.66635,-0.0903 -2.86004,0.22313 -0.48425,0.78355 19.46235,26.40332 36.27153,46.58769 18.12195,21.76075 41.63883,48.25834 42.82585,48.25391 0.17736,-6.1e-4 2.93336,-2.93688 6.12445,-6.52506 z m 43.97062,-145.82361 c 25.49158,-0.82914 62.06612,-2.66247 67.57212,-3.38714 l 2.62502,-0.3455 7.62959,-11.64047 c 36.87456,-56.25917 70.694,-114.617771 100.805873,-173.949973 L -69.970905,9.06908 -74.668648,-0.39742327 C -104.08194,-59.668684 -146.50239,-132.91214 -183.72603,-188.69681 l -8.35396,-12.51955 -3.83692,-0.38297 c -7.25891,-0.72452 -34.22564,-2.20508 -56.64442,-3.10996 -30.29063,-1.22262 -93.36063,-1.20437 -123.77617,0.0358 -34.01204,1.38682 -58.47156,3.03283 -59.65433,4.01444 -1.92978,1.60158 -24.74341,36.48651 -39.62868,60.59725 -25.61147,41.484801 -47.681,81.087319 -70.20926,125.986562 l -11.8965,23.7099613 12.19518,24.2416777 c 26.77575,53.225105 53.89823,100.703909 85.97043,150.494099 9.77248,15.17129 23.73982,35.8867 24.52271,36.37058 1.05056,0.64929 42.21996,2.77173 69.27433,3.57137 15.72614,0.46483 88.10331,0.33839 104.09754,-0.18179 z m -62.21573,-96.29059 c -0.8346,-0.12055 -3.97574,-0.52559 -6.9803,-0.9001 -15.32996,-1.91072 -32.18915,-8.02765 -46.88025,-17.00923 -18.05398,-11.037558 -34.32385,-29.119028 -43.89062,-48.777743 -8.41564,-17.293304 -12.11271,-33.411185 -12.11271,-52.8075012 0,-26.5985918 7.78844,-50.3458818 23.38535,-71.3031158 25.71458,-34.552221 67.65302,-52.70482 110.15456,-47.67927 27.73341,3.27929 52.46474,15.531187 71.99957,35.668556 17.94739,18.500999 28.81839,40.427462 32.77063,66.0976741 1.29476,8.40950344 1.29476,26.0228079 0,34.4323119 -3.8022,24.695336 -14.45323,46.796672 -30.98792,64.301205 -20.24257,21.429893 -45.15545,34.080083 -73.78228,37.465043 -6.81235,0.80552 -19.71328,1.08461 -23.67603,0.51217 z m -185.94828,85.6863 c -0.1878,-0.48941 -4.72546,-7.86516 -10.08371,-16.39066 -19.73979,-31.4079 -40.8618,-67.87287 -59.03148,-101.911739 -4.78797,-8.969687 -8.96191,-16.344528 -9.27543,-16.388534 -0.69387,-0.0973 -11.91992,27.507243 -20.94924,51.513593 -7.57263,20.1335 -22.28614,63.79802 -21.69652,64.38764 0.69986,0.69985 32.35814,6.83493 52.96238,10.26366 11.01673,1.83321 28.36127,4.42435 38.5434,5.75796 10.18214,1.33366 20.2884,2.66853 22.45836,2.96644 6.25421,0.85852 7.46477,0.82459 7.07224,-0.19836 z m 404.76557,-1.55388 c 29.256444,-3.70399 65.166637,-9.75925 93.778833,-15.81329 17.0512988,-3.60785 16.3885343,-3.41707 16.3885343,-4.7165 0,-1.10744 -4.98108264,-16.13536 -10.4921826,-31.655 C -16.29718,129.07048 -37.40889,76.908691 -38.916089,76.951423 c -0.32686,0.0091 -4.971674,8.203493 -10.321742,18.209483 -17.503683,32.735914 -37.442277,67.357664 -57.724299,100.233434 -5.80003,9.40155 -10.54554,17.25439 -10.54554,17.45075 0,0.57931 2.18623,0.42598 12.44315,-0.8726 z m -581.25041,-34.88578 c 2.09396,-7.05351 11.23241,-34.39832 15.72087,-47.04117 12.2528,-34.5131 27.79399,-73.137417 43.29065,-107.589698 2.96619,-6.594443 5.39307,-12.349793 5.39307,-12.789673 0,-0.4398805 -2.21219,-5.6969582 -4.91599,-11.6824153 -20.9697,-46.4212527 -41.06851,-98.3300337 -55.44812,-143.2048937 -2.24648,-7.01066 -4.29601,-12.96888 -4.55451,-13.24051 -1.1642,-1.22333 -48.99588,14.56171 -71.97529,23.75274 -20.47525,8.18943 -27.41283,11.24125 -43.07648,18.94922 -70.19109,34.54055 -115.75648,76.481196 -123.24558,113.4414091 -1.49931,7.3994234 -0.97888,18.4534299 1.21649,25.8383459 7.84454,26.387908 30.61322,53.088959 68.6146,80.464855 16.66314,12.00399 33.08538,21.80749 55.84242,33.3358 30.86484,15.63557 59.3533,27.12903 94.68931,38.20161 7.67833,2.40602 14.23375,4.47692 14.56759,4.60202 1.94286,0.72789 3.01139,-0.10847 3.88097,-3.03764 z M 84.828455,170.49712 C 161.72485,144.92779 224.24942,110.81135 261.76739,73.950682 296.90222,39.43139 305.63822,11.371123 290.6455,-18.807029 270.75614,-58.841427 209.92536,-102.44467 129.53431,-134.2909 c -21.82691,-8.64653 -67.077055,-23.77311 -69.580616,-23.25996 -0.633386,0.12982 -3.00329,6.44258 -7.477299,19.917 C 37.651145,-92.984177 21.263824,-51.327162 0.00431349,-4.2481827 L -5.8207787,8.6514759 0.17505774,21.548585 C 22.93157,70.498225 42.004789,118.19967 57.572986,165.0988 c 3.507207,10.56526 4.251854,12.2914 5.302784,12.2914 0.672415,0 10.55112,-3.10187 21.952685,-6.89308 z M -578.47356,-76.922855 c 17.66345,-33.202825 38.0097,-68.501555 57.12178,-99.100615 5.7856,-9.26295 10.51928,-16.97922 10.51928,-17.14727 0,-0.61289 -3.61144,-0.26335 -19.10179,1.8488 -34.49109,4.70297 -98.00066,16.37412 -100.00432,18.37778 -1.15682,1.15682 17.70293,55.1137 30.80013,88.117801 8.59083,21.648344 10.47945,25.868816 11.23699,25.111241 0.32156,-0.321519 4.56412,-8.065029 9.42793,-17.207737 z m 541.894355,11.972936 c 7.358391,-17.76865 14.5827,-36.052991 20.510979,-51.911971 6.7382372,-18.02583 18.7431422,-53.21948 18.7431422,-54.94763 0,-1.10558 -3.8228381,-2.04038 -29.1351722,-7.12446 -28.151618,-5.65436 -86.384454,-14.98239 -90.001094,-14.41683 -0.94162,0.14725 0.56449,2.90669 8.71075,15.95958 19.455493,31.17397 40.581649,67.5758 57.733889,99.479461 9.382315,17.451337 10.030512,18.579718 10.672092,18.57644 0.242672,0 1.487108,-2.52784 2.765414,-5.61459 z M 20.081543,-234.44761 c 6.242696,-24.48515 13.671437,-70.72381 16.334331,-101.66962 1.290809,-15.00049 1.826229,-54.9642 0.915694,-68.34794 -1.321159,-19.4198 -4.226846,-38.92992 -7.908439,-53.10046 -9.778189,-37.6367 -26.1593788,-60.61802 -48.360502,-67.84538 -8.018849,-2.61045 -13.419842,-3.35782 -23.911418,-3.30875 -9.645441,0.0451 -17.509631,0.96972 -27.921207,3.28275 -45.241882,10.05088 -102.479082,42.07378 -158.725992,88.80362 -17.11449,14.21867 -42.79228,37.69205 -42.79228,39.11858 0,0.36005 4.14168,5.23982 9.20374,10.84393 31.13876,34.47308 64.62751,76.28885 93.72342,117.02795 4.88675,6.84228 9.09867,12.57256 9.35979,12.73396 0.26119,0.1614 8.22195,1.12581 17.69057,2.14314 33.49416,3.59866 64.069826,7.81516 92.785149,12.79542 16.705683,2.89736 51.0206035,9.65668 61.001767,12.01605 7.246525,1.71296 6.988739,1.84756 8.605377,-4.49325 z m -659.725293,3.97455 c 44.41738,-9.89381 98.98494,-18.6252 150.05565,-24.01051 11.18366,-1.1793 20.74363,-2.27632 21.24439,-2.43782 0.50077,-0.1615 3.09398,-3.36524 5.76276,-7.11941 13.26925,-18.66611 42.00278,-56.15675 57.33413,-74.80785 12.16703,-14.80161 33.60069,-39.52976 45.09779,-52.02966 2.92111,-3.17588 5.3111,-6.16603 5.3111,-6.64476 0,-1.24514 -19.15704,-18.82038 -34.59802,-31.74128 -66.16913,-55.36981 -129.89745,-89.61104 -180.88086,-97.18728 -8.50662,-1.2641 -24.55277,-1.42531 -30.95612,-0.311 -13.42107,2.33552 -22.13647,6.85045 -31.59694,16.36851 -11.8962,11.96862 -19.76647,27.6474 -25.78215,51.36202 -11.05623,43.58516 -11.36055,100.55456 -0.88517,165.70716 2.38996,14.86452 9.46653,49.01111 12.79932,61.7605 0.32725,1.2519 0.86051,2.27618 1.18502,2.27618 0.3245,0 2.98361,-0.53316 5.9091,-1.1848 z m 294.92999,-32.84284 c 29.51715,-0.6173 51.82006,-0.43583 88.10197,0.71688 11.12587,0.35347 20.37489,0.49665 20.55335,0.31817 0.79247,-0.79249 -31.01336,-40.81916 -51.66492,-65.01863 -10.50693,-12.31202 -24.6594,-27.9195 -25.49419,-28.11513 -1.85651,-0.4351 -36.17963,38.91069 -58.76072,67.35951 -14.06434,17.71899 -19.27863,24.59524 -19.27863,25.42348 0,0.58036 1.98484,0.65664 8.75846,0.33659 4.81708,-0.2276 21.82018,-0.687 37.78468,-1.02087 z"
           id="path4671"
           inkscape:connector-curvature="0" />
        <path
           style="fill:#ffffff;stroke-width:0.60698277"
           d="m -53.77448,604.90995 c -32.410088,-2.26647 -71.88764,-14.69881 -108.79304,-34.26132 -20.44798,-10.83889 -30.68207,-16.9693 -49.86175,-29.86805 -30.28589,-20.36797 -59.33342,-43.88072 -91.03327,-73.68764 -4.00603,-3.76682 -7.67494,-6.84877 -8.153,-6.84877 -0.47812,0 -4.45792,3.36226 -8.84398,7.47165 -47.81913,44.80292 -97.93685,80.68464 -145.15276,103.92201 -35.40774,17.42593 -64.70383,27.03216 -96.51026,31.64571 -9.17212,1.33045 -36.24356,1.53027 -43.70276,0.32261 -23.99181,-3.88426 -42.05244,-11.39507 -57.66336,-23.98031 -62.82396,-50.64749 -78.74904,-175.28576 -42.22461,-330.47237 1.35698,-5.76561 2.46724,-11.01188 2.46724,-11.65838 0,-0.96322 -1.1233,-1.51667 -6.22158,-3.06551 -70.08866,-21.29216 -126.5224,-47.06447 -172.99651,-79.00439 -19.65693,-13.50949 -33.39912,-24.84854 -48.72795,-40.20684 -30.88924,-30.948597 -48.05692,-62.459925 -51.93263,-95.322579 -0.99688,-8.45266 -0.37235,-25.0986769 1.22027,-32.524565 8.26299,-38.527988 33.37231,-73.513461 77.14012,-107.481326 43.74135,-33.94733 103.15744,-63.09399 176.32849,-86.4982 6.67681,-2.13562 15.20013,-4.74189 18.94071,-5.79171 3.74057,-1.04983 6.9205,-2.22005 7.06649,-2.60051 0.146,-0.38046 -0.93043,-5.73111 -2.39207,-11.89035 -17.93298,-75.56828 -23.79467,-143.46669 -17.49929,-202.70168 2.99625,-28.1926 10.09761,-56.35698 19.6662,-77.99729 23.46366,-53.06535 64.06747,-79.13968 120.19732,-77.18648 21.83429,0.75979 40.62511,4.38508 64.94715,12.53017 60.17688,20.15235 127.88957,63.46975 192.80613,123.3427 5.72427,5.27954 10.77741,9.59911 11.22918,9.59903 0.45178,-8e-5 4.70964,-3.65716 9.46189,-8.12685 39.09388,-36.76897 77.52645,-66.44602 115.79095,-89.41201 47.94472,-28.77595 91.205895,-44.94062 130.634403,-48.81197 9.159309,-0.89932 30.687652,-0.35104 38.106802,0.9705 37.405313,6.66283 63.907212,25.92313 84.366295,61.31336 15.376633,26.59848 25.214731,62.57174 29.465006,107.73944 1.058214,11.24595 1.446562,52.31812 0.629806,66.6094 -2.201769,38.52317 -8.229837,80.90948 -17.065806,119.99726 -1.655242,7.3222 -3.009481,13.7976 -3.009481,14.38978 0,0.83835 1.377304,1.49384 6.221573,2.96109 47.277222,14.31935 75.832052,25.174 114.770482,43.62819 25.34469,12.01164 56.14773,30.55208 77.7948,46.8249 16.55649,12.44603 37.34492,32.07436 47.86751,45.196241 14.31763,17.854277 24.90219,37.419638 29.71739,54.931941 3.2374,11.7741299 3.73064,15.7569687 3.72086,30.0456466 -0.008,12.1620534 -0.15417,14.0318024 -1.63424,20.9538954 -6.41732,30.013294 -23.2983,57.825306 -52.12324,85.875076 -39.0324,37.98267 -97.01782,71.98111 -168.97526,99.0747 -12.42306,4.67753 -51.292111,17.76948 -52.756397,17.76948 -1.561584,0 -2.186716,1.48735 -1.550659,3.68912 1.57245,5.443 6.887009,30.33336 9.321313,43.65554 4.303751,23.55348 7.168588,45.08485 9.287565,69.80301 1.345984,15.70174 1.547806,65.84543 0.318727,79.21126 -4.597713,50.0005 -15.24504,87.39337 -33.35431,117.13887 -8.875059,14.57778 -23.620127,30.53105 -35.981452,38.92987 -22.2995152,15.1512 -50.421998,22.01769 -81.325007,19.85665 z m 26.41941,-58.10385 c 20.0805676,-3.59759 34.2352235,-15.31593 46.150234,-38.20695 11.069484,-21.26662 17.610391,-47.83808 21.017568,-85.38093 0.988471,-10.89164 0.984708,-50.92027 -0.0061,-63.73319 -2.715459,-35.12057 -8.152993,-70.11082 -16.200431,-104.24929 -1.332266,-5.65162 -1.802739,-6.82856 -2.729783,-6.82856 -0.616088,0 -5.441479,0.94507 -10.723079,2.10016 -47.509026,10.39009 -107.87243,19.61064 -158.920769,24.27512 -10.01643,0.91527 -10.35823,0.99169 -11.66724,2.61009 -0.74174,0.91703 -6.58965,9.0421 -12.99538,18.0558 -29.10009,40.9476 -59.28899,78.97531 -91.42284,115.16162 -3.42186,3.85337 -6.22157,7.24804 -6.22157,7.54365 0,1.0695 15.96729,16.0712 30.65263,28.79902 57.49869,49.83432 115.67999,84.10809 163.581853,96.3638 18.000802,4.60554 36.12288,5.88348 49.484755,3.48966 z m -549.63855,0.24073 c 22.78456,-1.64656 48.18826,-9.08787 77.67747,-22.75329 40.02323,-18.54703 87.43258,-51.03469 128.39039,-87.9807 10.83676,-9.77528 18.51576,-17.1849 18.51576,-17.86617 0,-0.34987 -3.21792,-4.13107 -7.15086,-8.40271 -31.97161,-34.72457 -65.13332,-75.81354 -103.32,-128.01837 l -3.94539,-5.39371 -7.89077,-0.74592 c -54.09772,-5.11395 -76.27589,-7.92829 -118.96863,-15.097 -11.01673,-1.8499 -26.72241,-4.74927 -34.9015,-6.44306 -19.85726,-4.11231 -18.06756,-3.9015 -18.77172,-2.21142 -0.32817,0.78762 -1.68982,6.21204 -3.02587,12.05425 -8.28245,36.2169 -13.08121,66.35299 -15.94787,100.15216 -1.27632,15.0485 -1.08508,61.4303 0.30535,74.0519 3.04478,27.63902 8.47914,49.73283 16.27349,66.16112 13.32983,28.09553 29.24611,40.21941 55.76463,42.47763 7.69619,0.65535 8.13348,0.65572 16.99552,0.0152 z m 270.85914,-176.18088 c 21.8277,-23.94219 73.4057,-88.48946 71.60217,-89.60649 -0.33633,-0.20826 -5.62303,-0.14016 -11.74821,0.15144 -14.29972,0.68073 -109.57914,0.83187 -129.65006,0.20564 -11.23792,-0.35059 -15.32632,-0.29584 -15.32632,0.20522 0,1.31679 21.91797,29.14349 39.17983,49.74206 18.79741,22.43087 38.86578,44.91673 40.08769,44.91673 0.40492,0 3.03959,-2.52657 5.8549,-5.6146 z m 52.05569,-146.71507 c 32.14204,-1.20778 61.00905,-2.8683 62.30441,-3.58406 0.8814,-0.48698 9.02936,-12.7995 22.34662,-33.76839 23.43663,-36.90243 45.655,-74.6984 66.1891,-112.595304 10.676464,-19.704056 33.075645,-63.832675 33.075645,-65.1623314 0,-1.248867 -8.840643,-18.9643875 -20.155227,-40.3886336 -29.433628,-55.73269 -57.891528,-103.931241 -91.697858,-155.306731 -6.7057,-10.19064 -10.08823,-14.81003 -10.98256,-14.99843 -1.91764,-0.40398 -29.23848,-2.0009 -54.09983,-3.16217 -43.59435,-2.03628 -119.74811,-1.28581 -165.70629,1.63297 -5.00761,0.31804 -11.6996,0.73572 -14.87108,0.9282 -3.17149,0.19247 -6.38176,0.47619 -7.13387,0.63047 -0.98853,0.20278 -4.02885,4.27267 -10.96951,14.68434 -28.15476,42.23462 -51.95562,81.75922 -77.20717,128.21309 -9.74158,17.921045 -34.58376,67.0067094 -34.58376,68.3339986 0,1.3507184 21.95866,44.8091674 32.68086,64.6788094 24.98326,46.297312 50.26354,88.251292 80.31608,133.288982 6.46831,9.69358 9.38887,13.57341 10.37097,13.77736 3.06866,0.63721 48.78836,2.68153 75.72243,3.38581 22.74049,0.59466 81.77448,0.26216 104.40104,-0.58798 z m -68.89254,-96.56107 c -41.82658,-2.86599 -79.55881,-28.350162 -98.36727,-66.436813 -22.8041,-46.177671 -13.55629,-101.287154 23.1014,-137.665999 20.69029,-20.53294 47.13155,-32.465108 76.21555,-34.393898 42.94027,-2.84771 83.71968,17.368171 107.70788,53.394765 23.47706,35.258901 26.22596,81.066677 7.15742,119.272115 -21.68555,43.44892 -66.95099,69.17795 -115.81498,65.82983 z m -186.67554,85.55944 c -0.37292,-0.69681 -4.88489,-7.94401 -10.02661,-16.10483 -19.18512,-30.45038 -42.48605,-70.72314 -59.74752,-103.266099 -4.47117,-8.429474 -8.43194,-15.326315 -8.80172,-15.326315 -1.05502,0 -15.79465,36.662484 -25.50102,63.429704 -7.57232,20.88214 -17.37951,50.67432 -17.16814,52.15311 0.15477,1.08286 1.08217,1.45038 6.55361,2.59716 32.30467,6.77065 61.6995,11.50985 107.73944,17.37051 1.00152,0.12746 3.12798,0.27271 4.72547,0.32273 2.76742,0.0866 2.87252,0.031 2.22649,-1.17597 z m 401.85092,-0.58568 c 16.106959,-1.87642 49.122754,-7.03541 71.927461,-11.23937 15.734935,-2.90065 40.5508186,-8.18923 41.1911854,-8.77837 1.4085035,-1.29579 -18.6050534,-56.55101 -33.3005314,-91.93895 -8.81606,-21.229954 -10.527509,-24.920166 -11.230941,-24.216734 -0.319151,0.319151 -4.583023,8.083614 -9.475244,17.254335 -16.9767,31.823499 -40.587844,72.774439 -60.52207,104.968809 -4.8504,7.8336 -8.68125,14.46567 -8.51293,14.73797 0.16831,0.27235 1.17245,0.35763 2.23139,0.18962 1.05894,-0.16808 4.5202,-0.60784 7.69168,-0.97731 z m -572.0844,-54.29333 c 16.02921,-48.46812 32.78547,-91.418646 53.9605,-138.314256 l 4.62413,-10.2409529 -4.93291,-11.0034444 c -22.40202,-49.9706457 -38.5859,-91.5807527 -54.26972,-139.5321067 -4.30481,-13.16143 -6.15644,-18.05774 -6.82886,-18.05774 -3.31085,0 -49.96696,15.37265 -67.05253,22.09303 -33.00703,12.98288 -57.30189,24.6316 -80.87031,38.77509 -50.32432,30.199802 -81.29078,62.360675 -89.64734,93.1050806 -1.88477,6.9342318 -1.86906,18.5392564 0.0351,25.9013504 4.55448,17.60936 14.68922,33.68457 33.10766,52.513722 37.75758,38.599487 101.03698,73.992837 176.97595,98.985897 25.16752,8.28313 25.70058,8.44999 26.63388,8.33545 0.53725,-0.066 3.49777,-8.14783 8.26447,-22.56112 z m 753.881507,16.09919 c 45.524433,-14.42987 87.380813,-32.30757 122.227753,-52.20599 28.19374,-16.0993 49.70934,-31.985559 67.79014,-50.053554 17.75771,-17.745202 27.90537,-33.512915 32.56086,-50.594017 1.9276,-7.072381 1.78708,-18.412944 -0.3274,-26.4251773 C 282.16547,-58.287859 192.3058,-118.1422 71.048125,-154.91501 c -6.294775,-1.90896 -11.663963,-3.2402 -11.931521,-2.95831 -0.267558,0.28188 -2.045896,5.42908 -3.951822,11.43821 C 42.344214,-106.01419 22.457759,-54.875219 0.93172245,-6.9723213 -2.7832548,1.2949054 -5.8228424,8.3113834 -5.8228424,8.6198521 c 0,0.3084686 3.2783746,7.6754189 7.2853106,16.3709319 22.3816998,48.571308 41.5976208,96.787166 56.1409888,140.866736 2.995885,9.08035 4.212703,12.13966 4.828548,12.13966 0.06823,0 5.274376,-1.63248 11.569152,-3.62775 z M -578.34162,-76.632092 c 17.92627,-33.674358 38.45796,-69.271798 57.59014,-99.848668 5.74438,-9.18061 10.22926,-16.91181 9.96639,-17.18043 -1.04317,-1.06602 -60.30458,7.9778 -87.14943,13.29977 -11.78925,2.33721 -29.68829,6.13769 -31.41136,6.66952 -0.58422,0.18033 -1.06222,0.73542 -1.06222,1.23354 0,1.45369 13.35931,41.10154 19.09689,56.67588 5.7463,15.59801 19.78698,51.105217 21.69039,54.852425 0.66813,1.315332 1.42139,2.116367 1.71233,1.820949 0.2857,-0.290138 4.59079,-8.175451 9.56687,-17.522986 z m 546.607533,0.606983 c 12.065422,-29.658561 19.280322,-49.012201 28.3914369,-76.159381 5.1888528,-15.46047 6.4525302,-19.85629 5.8610862,-20.38856 -2.39205837,-2.15276 -63.6506401,-13.5731 -100.6026581,-18.7552 -8.512938,-1.19385 -16.402678,-2.32142 -17.532758,-2.50571 -1.77633,-0.28968 -2.01518,-0.18384 -1.7628,0.78123 0.16055,0.61397 4.79092,8.34954 10.28969,17.19015 19.76221,31.77251 41.727095,69.71311 58.150167,100.444454 9.453574,17.689906 9.049323,17.043954 10.015822,16.003404 0.423431,-0.455844 3.658892,-7.930533 7.190014,-16.610387 z M 20.784732,-236.42031 c 3.880563,-16.39677 7.627528,-36.06801 10.66578,-55.99416 14.403398,-94.46495 5.904668,-174.48482 -22.5485596,-212.30673 -12.138502,-16.13527 -26.2381654,-23.37189 -47.1983724,-24.22441 -39.956036,-1.62513 -95.68015,21.52728 -156.2546,64.92115 -22.93339,16.4288 -50.19523,39.15518 -71.64782,59.72802 l -6.9607,6.67524 2.40833,2.75995 c 1.32456,1.51797 5.9335,6.6841 10.24198,11.48029 30.15248,33.56527 61.70854,73.07694 91.07176,114.03184 4.90672,6.84373 9.37964,12.63072 9.93989,12.85998 0.56024,0.22926 6.89113,0.99764 14.0687,1.70753 46.938162,4.64233 102.354352,13.28337 145.6758652,22.71522 8.1790927,1.78073 15.7339648,3.27086 16.7885968,3.3114 l 1.91758,0.0737 z m -655.021462,5.06077 c 45.57403,-9.83819 95.29775,-17.67244 146.26156,-23.04433 10.73541,-1.13158 19.79468,-2.22784 20.13172,-2.43614 0.33703,-0.2083 3.82832,-4.8152 7.75841,-10.23756 32.41992,-44.72991 66.40513,-86.72109 99.01364,-122.33853 3.76226,-4.10942 6.84045,-7.69491 6.84045,-7.96775 0,-1.81201 -27.99167,-26.65718 -48.55862,-43.10023 -33.70885,-26.94983 -64.32918,-46.77816 -96.20354,-62.29698 -26.4001,-12.85354 -48.74804,-20.48481 -69.50275,-23.73349 -8.61103,-1.34786 -28.69059,-1.52631 -34.29453,-0.30477 -12.92426,2.81721 -21.51896,7.29817 -29.77948,15.52592 -23.74063,23.64646 -35.96412,72.16143 -34.65443,137.54324 0.7395,36.91715 4.78714,71.0629 13.09523,110.47087 3.21932,15.27032 7.24631,32.75365 7.72125,33.52211 0.48163,0.77928 2.16509,0.55765 12.17109,-1.60236 z m 319.15617,-31.8528 c 20.36427,-0.0207 43.44479,0.21383 51.29004,0.52115 22.47906,0.88054 27.51933,0.92108 27.75192,0.2232 0.78732,-2.36194 -55.07464,-70.50584 -74.04546,-90.32527 l -3.50126,-3.65789 -3.68469,3.94539 c -24.85321,26.61158 -76.16152,89.09402 -74.17299,90.32663 0.37026,0.22952 9.37242,0.0994 20.00482,-0.28916 10.63246,-0.38854 35.99335,-0.72337 56.35762,-0.74405 z"
           id="path4669"
           inkscape:connector-curvature="0" />
        <path
           style="fill:#ffffff;stroke-width:0.60698277"
           d="M -54.684955,604.67189 C -127.20647,598.67812 -213.5738,550.97595 -302.14855,467.9934 c -4.90563,-4.5959 -9.13934,-8.35585 -9.40823,-8.35537 -0.26889,4.9e-4 -4.17629,3.44888 -8.68313,7.6631 -80.77423,75.52972 -166.67352,124.50328 -236.72328,134.96238 -55.81778,8.33417 -98.60105,-6.58309 -127.10941,-44.31934 -6.18119,-8.18194 -10.81054,-15.86288 -15.8992,-26.37953 -13.35382,-27.59817 -20.71303,-58.5379 -23.96622,-100.75914 -0.89869,-11.6636 -0.89865,-47.92098 7e-5,-61.30526 2.67348,-39.81503 8.75388,-79.16876 18.84856,-121.99218 1.91838,-8.13806 2.27222,-10.45801 1.6813,-11.02336 -0.41163,-0.39381 -5.39184,-2.1282 -11.06712,-3.85422 -99.4693,-30.25135 -180.37629,-75.99782 -226.82793,-128.25321 -16.52232,-18.586661 -29.40486,-39.854062 -35.92605,-59.309317 -9.68117,-28.882668 -8.31499,-55.984023 4.27086,-84.722412 17.95587,-41.000223 61.98609,-82.314091 124.02511,-116.373621 20.4022,-11.20085 48.78362,-24.26605 74.06322,-34.09452 14.27603,-5.55038 48.8622,-17.30045 63.41166,-21.54304 4.66384,-1.35997 8.73173,-2.72468 9.03974,-3.03269 0.34205,-0.34205 -0.64343,-5.71207 -2.53187,-13.79655 -9.81279,-42.00888 -15.12969,-75.38819 -18.35144,-115.20963 -1.04068,-12.86306 -1.42627,-50.83646 -0.64715,-63.73319 2.6621,-44.0659 11.08892,-80.12244 25.25914,-108.07852 7.71793,-15.22651 16.55087,-27.46501 27.38008,-37.93655 12.2369,-11.83274 24.11807,-18.95954 41.41159,-24.84032 23.02909,-7.83119 50.9926,-8.52915 82.34329,-2.05527 28.87121,5.96188 63.13759,19.53172 96.81375,38.33925 42.13377,23.53096 89.35503,58.8325 130.68497,97.69721 3.2839,3.08802 6.22995,5.61459 6.5468,5.61459 0.31684,0 4.59977,-3.79131 9.51767,-8.42513 50.55917,-47.63863 100.208,-83.48398 149.76164,-108.1246 66.217937,-32.92694 123.580904,-39.61164 166.461626,-19.39832 10.825962,5.10319 19.374222,11.28325 29.34015,21.21173 12.094192,12.04883 19.007665,21.65385 27.09911,37.6495 13.788948,27.25885 21.889012,59.97779 25.77091,104.09755 1.007591,11.45193 1.002674,55.82192 -0.0079,69.49953 -2.882015,39.01435 -9.26019,81.39756 -17.675035,117.45116 -1.872724,8.02359 -2.245411,10.4737 -1.675515,11.01554 0.403097,0.38325 5.786003,2.22121 11.962052,4.08435 49.765852,15.01301 95.095932,33.50093 132.512652,54.0455 63.95905,35.11828 107.79741,76.393954 125.73138,118.381453 16.86284,39.4798593 12.3203,77.590244 -13.96703,117.17851 C 300.31128,126.67151 239.049,170.50289 156.5448,205.01781 c -18.68523,7.81678 -42.05103,16.34301 -63.126204,23.03493 -14.954477,4.74843 -16.085043,5.15948 -16.085043,5.84804 0,0.28649 1.073449,5.10163 2.385442,10.70032 17.267264,73.68522 22.509345,147.51417 14.600242,205.62785 -4.391884,32.26994 -12.064511,59.00006 -23.608048,82.24617 -18.455007,37.1644 -44.671503,59.76206 -79.6148331,68.62517 -12.6659089,3.21263 -31.9359119,4.71595 -45.7815529,3.5716 z m 30.152537,-58.15344 c 23.96343628,-5.5707 40.465841,-24.15057 52.367559,-58.96006 5.699932,-16.6709 9.233786,-34.82114 11.995132,-61.60875 1.206014,-11.69959 1.002007,-57.81948 -0.323582,-73.14142 -1.424285,-16.46259 -4.148849,-37.86583 -6.830438,-53.65698 -3.633945,-21.39917 -9.712028,-49.51401 -10.978072,-50.78005 -0.321762,-0.32176 -4.887061,0.42361 -11.149727,1.82034 -45.017605,10.03992 -106.781257,19.53125 -156.280824,24.016 -6.00913,0.5444 -11.66366,1.17603 -12.56563,1.40359 -1.27467,0.32164 -3.83346,3.52341 -11.48776,14.37438 -30.86167,43.75041 -61.15849,82.08155 -95.41065,120.71224 -3.65944,4.1273 -6.25526,7.55663 -6.07523,8.02595 0.36164,0.9424 16.73822,16.12602 28.58063,26.49869 37.47306,32.82229 76.1815,59.63271 111.82972,77.45597 29.17238,14.5855 54.612969,22.74134 78.604266,25.19926 6.249616,0.64024 22.564281,-0.15952 27.724606,-1.35916 z m -541.267092,-0.3841 c 46.18211,-7.26206 105.31757,-37.07347 161.18899,-81.25884 23.25898,-18.39413 52.43834,-44.47017 52.07761,-46.53895 -0.0993,-0.56959 -4.21641,-5.46837 -9.14911,-10.88618 -9.92235,-10.89819 -30.32359,-34.51789 -41.16746,-47.66186 -15.61766,-18.9304 -44.12085,-56.01747 -58.42846,-76.02459 -2.92456,-4.08955 -5.41878,-7.43554 -5.54279,-7.43554 -1.08213,0 -29.83994,-2.69355 -39.15591,-3.66745 -30.05467,-3.14199 -53.94927,-6.42358 -86.49504,-11.87908 -17.47185,-2.92869 -52.06493,-9.60374 -53.10629,-10.24733 -1.65128,-1.02058 -3.40206,5.22898 -9.0659,32.36153 -19.4677,93.25981 -17.33973,176.6275 5.71209,223.78229 4.90394,10.03154 9.08434,16.32632 14.85537,22.36901 9.52418,9.97261 20.35675,15.55084 33.71395,17.36105 3.00457,0.40716 5.87256,0.84109 6.37332,0.96431 2.15533,0.53032 22.67426,-0.37111 28.18963,-1.23837 z m 260.49362,-175.87538 c 17.39764,-19.54363 35.10715,-40.95197 52.84726,-63.88493 12.93389,-16.71983 18.41027,-24.21121 18.41027,-25.18408 0,-0.58483 -1.56177,-0.66787 -6.82856,-0.3631 -26.48939,1.53293 -75.00328,1.89621 -119.9112,0.89797 -16.79309,-0.37329 -30.69803,-0.51363 -30.89979,-0.31193 -0.81992,0.81997 29.46045,38.85801 49.8283,62.59407 14.62343,17.04171 29.23029,33.08056 30.12693,33.08056 0.19144,0 3.08347,-3.07285 6.42679,-6.82856 z m 57.90391,-146.08078 c 23.52149,-1.0638 50.25453,-2.56129 53.26079,-2.9835 l 2.88511,-0.40522 5.63384,-8.49776 c 37.82595,-57.05462 78.01895,-126.706079 108.849243,-188.627365 6.445733,-12.946093 7.116691,-14.5935047 6.551165,-16.0850435 -1.656031,-4.3677266 -26.15956,-51.1694975 -38.051688,-72.6787205 -23.97879,-43.370331 -54.23215,-93.158831 -77.63771,-127.769871 l -5.95183,-8.80125 -4.10569,-0.40592 c -4.56906,-0.45171 -31.53579,-2.02368 -51.12974,-2.98049 -21.02934,-1.02691 -90.457,-1.40663 -113.80927,-0.62246 -33.0893,1.11113 -72.15914,3.22842 -74.65888,4.04594 -0.9126,0.29846 -13.89244,19.39744 -25.55051,37.59586 -21.66727,33.82299 -42.50645,69.175877 -62.7927,106.525475 -11.19314,20.607976 -33.66032,65.5157175 -33.66032,67.2807626 0,1.8220414 23.13299,47.5790724 35.3374,69.8973434 25.36918,46.392729 48.36306,84.348569 78.78464,130.049159 4.6881,7.04269 8.04095,11.49625 8.79197,11.67828 2.63248,0.638 47.9764,2.81337 74.35539,3.56718 14.22682,0.4065 99.70863,-0.18586 112.89879,-0.7824 z m -82.60586,-97.48046 c -39.84514,-5.43875 -74.14622,-30.372995 -91.59777,-66.584495 -23.37897,-48.510791 -11.5391,-106.124078 29.13475,-141.77098 52.15578,-45.709795 132.67963,-36.874045 174.36102,19.132358 34.42345,46.25409 30.4122,111.215874 -9.44138,152.903451 -19.47911,20.375496 -43.62913,32.678136 -71.32363,36.333986 -8.24367,1.08826 -23.10559,1.0814 -31.13299,-0.0146 z m -179.14165,87.26318 c -0.15375,-0.58422 -4.91641,-8.43706 -10.58368,-17.45076 -19.93895,-31.71248 -39.96838,-66.25738 -57.71718,-99.54517 -5.16204,-9.681375 -9.67412,-17.957646 -10.02685,-18.391699 -0.52626,-0.64759 -0.7716,-0.64759 -1.36751,0 -0.72522,0.788167 -7.69011,17.651544 -14.86783,35.998019 -11.27383,28.81627 -28.58169,79.38504 -27.53042,80.43633 0.78623,0.78622 32.96907,7.14704 53.41339,10.55701 13.72963,2.28996 29.76882,4.55905 61.83772,8.74832 6.72983,0.87909 7.16051,0.85694 6.84236,-0.35205 z m 405.44327,-1.69045 c 21.480212,-2.75534 50.785643,-7.44161 72.390102,-11.57607 17.432605,-3.33604 35.9771425,-7.44501 36.6535034,-8.12137 C 6.0445203,191.86589 5.2147142,189.0416 -1.0852813,170.71339 -12.804965,136.61825 -36.946612,76.024075 -38.81102,76.024075 c -0.390351,0 -5.00081,8.034448 -10.245383,17.854337 -17.275215,32.346108 -38.56641,69.311608 -58.850197,102.175108 -5.61447,9.09643 -10.20805,16.8127 -10.20805,17.14726 0,0.85743 0.94968,0.79612 14.40843,-0.93032 z m -577.87402,-48.53738 c 15.88895,-48.38793 35.14129,-97.947712 55.36915,-142.532478 2.69925,-5.949524 4.90773,-11.103293 4.90773,-11.4529153 0,-0.349622 -2.16494,-5.451555 -4.81098,-11.337649 -22.02716,-48.9991697 -39.79782,-94.7781437 -54.69503,-140.8997577 -2.74967,-8.51294 -5.3097,-15.81579 -5.68897,-16.22857 -0.82708,-0.90017 -22.08237,5.36537 -44.36541,13.07784 -94.58142,32.73595 -165.35091,79.789343 -188.22719,125.148923 -10.19785,20.22053825 -10.02277,37.631778 0.59037,58.711986 7.71343,15.32067 22.04117,32.66144 39.21093,47.456645 42.16641,36.334896 100.32027,66.665156 171.18774,89.283346 7.51142,2.39733 14.74969,4.72766 16.08505,5.17853 4.74614,1.60243 4.28554,2.32644 10.43661,-16.4059 z m 767.411794,6.98128 C 146.20309,150.59318 198.4861,124.70676 236.66677,96.032655 c 11.61164,-8.720461 16.62417,-13.025608 26.33079,-22.614964 31.00486,-30.630293 41.25765,-57.552528 31.86915,-83.683562 -9.60035,-26.720656 -37.85345,-55.605303 -80.52082,-82.320824 -35.37787,-22.151275 -79.73101,-42.070965 -129.728301,-58.263005 -17.461316,-5.655 -24.851149,-7.6995 -25.496675,-7.05401 -0.315571,0.31559 -3.148177,8.35142 -6.294654,17.85737 C 38.062436,-95.442421 20.956448,-51.858272 0.00352441,-5.4598417 -3.2009804,1.6362118 -5.8228424,7.9622469 -5.8228424,8.5980007 c 0,0.6357537 2.8931833,7.3944463 6.42922209,15.0193033 C 22.700734,71.259321 43.477693,123.43362 58.21657,168.28546 c 1.59072,4.84068 3.02326,9.03062 3.183443,9.31099 0.511868,0.89585 4.275829,-0.16443 24.431541,-6.88209 z M -579.16766,-74.660824 c 17.48304,-32.970226 40.03188,-72.106356 59.1308,-102.628366 5.39624,-8.62374 9.81134,-15.93029 9.81134,-16.23679 0,-0.87001 -1.97511,-0.70342 -18.67032,1.57472 -22.04264,3.00783 -53.21425,8.24647 -74.19804,12.46957 -25.62846,5.15787 -26.9742,5.50431 -27.19015,6.9995 -0.75386,5.21976 39.31293,113.760339 41.99153,113.754633 0.37218,0 4.47835,-7.170737 9.12484,-15.933267 z m 542.187786,11.989336 c 7.298967,-17.666319 16.275999,-40.329352 21.130223,-53.344362 7.0871304,-19.00173 19.2323698,-54.94082 18.9906693,-56.19565 -0.2008506,-1.04312 -3.26744889,-1.8314 -22.6209733,-5.81492 -35.387094,-7.28368 -96.667895,-17.05246 -98.084715,-15.63568 -0.32947,0.3295 3.25386,6.63199 8.92332,15.69454 19.526998,31.2136 42.134738,70.20258 59.739666,103.02614 5.712558,10.650866 9.012723,16.198506 9.568598,16.085061 0.466709,-0.0953 1.525651,-1.812086 2.353212,-3.815129 z M 18.905271,-228.83302 c 0.887166,-1.12654 5.198322,-20.55309 8.31791,-37.48119 8.619823,-46.77395 11.771702,-80.80484 11.074825,-119.5756 -0.797454,-44.3698 -7.017388,-77.05838 -19.57659,-102.88358 -10.2882971,-21.15567 -23.4711129,-33.39955 -41.284357,-38.344 -5.733742,-1.59152 -6.674868,-1.67255 -19.678867,-1.69416 -14.09942,-0.0234 -16.505561,0.22948 -29.216205,3.0711 -44.950477,10.04923 -103.746827,43.08645 -159.251937,89.48237 -16.76705,14.01535 -42.16679,37.29697 -42.17881,38.66151 -0.006,0.40502 4.02235,5.19728 8.9465,10.64947 31.86514,35.2822 66.04931,78.03587 96.60968,120.82852 3.77222,5.28213 7.1709,9.7125 7.55257,9.84526 0.38173,0.13276 6.15687,0.80968 12.83368,1.50426 52.296174,5.44033 98.451446,12.60004 146.88982382,22.78588 8.67985348,1.82523 16.05469418,3.42986 16.38853418,3.56583 1.158123,0.47171 1.978886,0.33913 2.573243,-0.41567 z m -654.962951,-1.91983 c 51.36915,-11.09071 108.78664,-19.87578 163.30323,-24.98596 2.41478,-0.22635 4.77476,-0.71814 5.2444,-1.09285 0.46966,-0.37472 3.80029,-4.77843 7.4014,-9.78604 30.55691,-42.49131 63.88038,-83.77024 97.8194,-121.1724 4.43207,-4.88432 8.0583,-9.28955 8.0583,-9.78938 0,-1.16738 -20.58709,-20.09597 -34.90151,-32.08987 -65.25902,-54.67982 -130.31575,-89.73788 -180.12357,-97.06581 -14.92462,-2.19576 -31.45889,-1.45525 -41.72862,1.86888 -30.17922,9.76851 -48.43094,44.70118 -55.01163,105.28892 -1.27577,11.74589 -1.7865,48.95623 -0.88358,64.37545 1.63868,27.984 5.33151,55.99214 11.27956,85.5493 3.64191,18.09745 8.44352,39.29057 9.16712,40.46138 0.40614,0.65714 -0.60854,0.80986 10.3755,-1.56162 z m 284.55816,-31.99547 c 28.1073,-0.70402 71.50184,-0.39094 99.8004,0.72005 9.16174,0.35969 15.65203,0.3835 15.97694,0.0586 1.11594,-1.11593 -31.69293,-42.58606 -54.81977,-69.29171 -10.65072,-12.29891 -21.76112,-24.55465 -22.48482,-24.80266 -0.979,-0.33551 -3.80123,2.58516 -18.10162,18.73283 -26.00211,29.36097 -61.92991,73.82431 -60.94289,75.42138 0.24145,0.39068 2.71703,0.47401 6.81829,0.22952 3.54163,-0.21112 18.73064,-0.69173 33.75347,-1.06802 z"
           id="path4667"
           inkscape:connector-curvature="0" />
        <path
           style="fill:#ffffff;stroke-width:0.60698277"
           d="m -57.719868,604.07547 c -51.504372,-4.62351 -114.728302,-33.21634 -178.149442,-80.56749 -22.95785,-17.14065 -41.49383,-32.76863 -65.11468,-54.89916 -5.26667,-4.93441 -10.01758,-8.97164 -10.55749,-8.97164 -0.53992,0 -4.42509,3.22515 -8.63367,7.16701 -81.05848,75.9205 -166.3277,124.39378 -238.002,135.29774 -9.40969,1.43151 -12.45828,1.61979 -26.70725,1.64899 -20.34557,0.0419 -28.19887,-1.04777 -43.7986,-6.07663 -51.15434,-16.49057 -83.74568,-68.13302 -93.05207,-147.44534 -1.59587,-13.60054 -2.15796,-22.51469 -2.54521,-40.36435 -1.03442,-47.67947 5.30105,-100.99769 19.01123,-159.9952 1.55866,-6.70722 2.6663,-12.63179 2.46143,-13.16564 -0.23005,-0.59951 -2.76437,-1.69493 -6.62703,-2.86441 -54.44806,-16.48504 -99.51252,-35.28542 -140.04851,-58.42658 -57.84139,-33.02053 -99.02686,-71.39744 -119.28349,-111.149108 -6.03849,-11.850003 -10.15957,-23.519854 -12.47075,-35.314075 -1.68065,-8.576545 -2.30649,-25.5783149 -1.25039,-33.9686378 2.99345,-23.7819492 13.92867,-47.6226542 32.569,-71.0060582 10.26469,-12.876569 29.10876,-30.993601 45.45797,-43.704131 37.44242,-29.10922 90.71725,-56.63185 150.22823,-77.61029 14.44298,-5.09135 39.34389,-13.128 47.34466,-15.28027 2.16996,-0.58374 4.29196,-1.37841 4.71554,-1.76595 0.6175,-0.56496 0.27734,-2.74322 -1.71626,-10.99022 -3.5308,-14.60604 -9.37259,-43.3265 -11.78383,-57.93375 -8.62441,-52.24658 -10.76479,-104.1964 -6.03948,-146.58634 7.40643,-66.44187 31.86928,-115.25488 69.05479,-137.79147 9.95666,-6.03431 25.34323,-11.84803 37.60651,-14.20938 58.35752,-11.23701 136.863,15.95182 220.45536,76.35038 23.14249,16.72131 50.06272,38.87956 71.92746,59.20407 4.50684,4.18937 8.63566,7.62337 9.17515,7.63109 0.53955,0.008 4.38575,-3.19632 8.54717,-7.12011 15.4108,-14.53089 33.64001,-30.5224 46.92134,-41.16166 64.44633,-51.62588 125.16749,-83.8926 178.076603,-94.62846 16.21779,-3.29077 20.069642,-3.66262 37.705769,-3.63996 14.711866,0.0189 17.556066,0.18396 23.975819,1.39145 25.0555807,4.71273 43.934505,14.42509 60.400065,31.07309 30.587258,30.92616 47.908846,79.81191 52.242885,147.4424 0.931537,14.53583 0.389987,56.36061 -0.927894,71.66533 -3.155704,36.64785 -9.655761,77.76484 -17.592425,111.2834 -1.706896,7.20863 -1.856638,8.64282 -0.960368,9.19676 0.32856,0.20306 6.79669,2.28007 14.373656,4.61557 74.38598,22.92857 132.3288,50.18511 179.42228,84.40101 48.14812,34.982142 77.02454,73.955468 84.63731,114.2315062 1.49094,7.8880446 1.49622,30.1151468 0.009,37.4264968 -6.24719,30.708594 -21.85417,57.340388 -50.16846,85.607337 -29.93105,29.88109 -70.53571,56.74244 -122.04208,80.73496 -25.29236,11.78159 -50.02224,21.41587 -82.081064,31.97712 -11.927454,3.92937 -21.808709,7.45545 -21.95833,7.83585 -0.149621,0.38039 0.241701,2.7021 0.869624,5.15935 7.859699,30.7577 14.745857,73.01924 17.986599,110.38625 1.374816,15.85275 1.570082,66.18 0.311928,80.42522 -4.491308,50.85399 -16.699916,91.5744 -36.218297,120.80195 -6.455565,9.66675 -11.415039,15.594 -19.533494,23.34517 -16.510781,15.76382 -37.7500787,25.94226 -61.504956,29.47484 -7.639789,1.13615 -28.271011,1.62046 -36.719726,0.86197 z m 30.41803,-56.70706 c 5.538657,-0.99575 11.856073,-3.07473 16.623134,-5.47037 20.6638171,-10.38432 37.263339,-39.1428 45.460398,-78.7596 10.080284,-48.71868 8.620916,-110.23195 -4.217134,-177.75587 -3.112425,-16.37033 -7.674751,-36.42674 -8.466135,-37.21812 -0.4312,-0.4312 -2.092148,-0.31035 -5.321114,0.38731 -54.707842,11.82008 -108.90163,20.22679 -165.544591,25.67987 -5.67529,0.54634 -10.66524,1.27933 -11.08885,1.62884 -0.42355,0.3495 -3.96742,5.17288 -7.87524,10.71864 -30.97342,43.95587 -59.03981,79.77757 -91.7631,117.11897 -6.53581,7.45824 -11.88333,14.05942 -11.88333,14.66925 0,1.13931 7.7831,8.67354 23.03742,22.30085 59.8655,53.4801 121.78181,90.70793 171.804046,103.29888 18.393156,4.6297 35.737749,5.82795 49.234496,3.40135 z m -549.995272,0.28522 c 52.71465,-3.62921 124.56409,-40.54341 193.6275,-99.48041 14.26938,-12.17716 31.86659,-28.58506 31.86659,-29.7129 0,-0.47569 -3.08256,-4.17495 -6.85016,-8.22049 -29.30895,-31.47126 -74.39776,-87.2426 -101.77262,-125.88482 -3.47079,-4.89932 -6.20124,-8.16744 -6.96506,-8.33655 -0.69099,-0.15296 -6.1729,-0.69851 -12.18203,-1.21232 -49.95058,-4.27098 -102.63389,-11.7118 -148.90434,-21.03074 -10.46647,-2.10799 -18.61696,-3.47577 -18.89906,-3.17161 -0.27281,0.29414 -1.61691,5.3148 -2.9869,11.15701 -9.24624,39.43009 -14.85824,75.99097 -17.05016,111.07785 -0.81206,12.9989 -0.80439,43.47138 0.0139,55.33886 2.68386,38.92235 11.43822,70.52272 25.3627,91.55097 4.44195,6.70807 13.08715,15.35739 19.03331,19.04244 8.14596,5.04828 18.03908,8.01102 29.62126,8.87088 3.17149,0.23544 6.17605,0.4661 6.67681,0.51247 0.50076,0.0461 4.73447,-0.17888 9.40823,-0.50064 z M -305.36883,370.8824 c 10.04617,-11.3666 24.20489,-27.99671 31.92516,-37.49763 16.6706,-20.51572 40.00229,-50.9874 40.00229,-52.24386 0,-0.52146 -4.63389,-0.56571 -18.36123,-0.17536 -22.62965,0.64359 -99.65734,0.6848 -122.914,0.0658 -15.76899,-0.41973 -17.14727,-0.37524 -17.14727,0.55327 0,1.06307 2.07376,3.85822 16.36511,22.05799 22.77575,29.00443 61.31181,73.46082 63.65373,73.43278 0.55733,-0.007 3.47164,-2.79352 6.47621,-6.19299 z m 50.68306,-146.14524 c 17.81713,-0.65603 49.21646,-2.20493 57.5595,-2.83928 3.30745,-0.25148 5.43638,-0.71946 6.15712,-1.35339 1.20801,-1.06259 13.39732,-19.70218 26.23591,-40.11938 21.32228,-33.90873 40.66761,-66.89727 59.97761,-102.276596 11.01176,-20.175439 35.199598,-67.662493 35.199598,-69.1059591 0,-1.9257743 -19.929187,-40.6300309 -35.676018,-69.2861119 -24.91525,-45.340713 -52.54838,-91.093883 -78.52469,-130.016233 -7.05854,-10.57639 -7.96174,-11.68409 -9.76314,-11.97344 -3.0998,-0.49789 -29.52255,-2.05706 -53.8821,-3.17949 -30.83855,-1.42099 -102.07556,-1.42366 -132.92923,-0.005 -31.57566,1.45187 -53.50929,2.82129 -55.01679,3.43496 -3.96342,1.6133 -48.41243,72.09045 -73.50614,116.549278 -16.49054,29.216509 -49.32301,92.4717612 -49.32301,95.0260053 0,1.2534197 21.96092,44.8774527 31.60903,62.7895147 25.24426,46.866782 53.55647,93.857622 82.39441,136.752972 4.79862,7.13782 8.618,12.21632 9.4055,12.50622 2.28316,0.84061 45.52049,2.90501 77.50235,3.70047 23.89545,0.59429 78.80985,0.27059 102.58009,-0.60468 z m -68.58906,-97.75731 c -15.43095,-1.11873 -29.51453,-5.04372 -44.00625,-12.26433 -12.9765,-6.46558 -22.81114,-13.74281 -33.09191,-24.486592 -8.88246,-9.282466 -14.92631,-17.961348 -20.67067,-29.682914 -28.68862,-58.5396034 -4.66412,-129.374772 53.78073,-158.570291 14.82598,-7.406143 28.32522,-11.089313 45.01494,-12.281983 42.81935,-3.05994 83.76447,17.312796 107.93543,53.7046 6.70449,10.094244 12.80254,24.154272 15.66392,36.115474 2.8116,11.7534326 3.14472,14.8625804 3.12117,29.1351732 -0.0249,15.0936588 -0.90271,21.6856128 -4.5003,33.7940688 -12.40581,41.754588 -47.43582,73.812934 -90.07557,82.434394 -6.60252,1.33499 -21.30813,2.87697 -25.28071,2.65081 -0.8346,-0.0473 -4.38545,-0.29426 -7.89078,-0.54841 z m -185.12974,87.49086 c 0,-0.30379 -4.27867,-7.3372 -9.50816,-15.6298 -19.71343,-31.26022 -44.12397,-73.36121 -60.30037,-104.00037 -9.0027,-17.051663 -9.58964,-17.986356 -10.6246,-16.918855 -1.51208,1.559642 -16.72606,39.818195 -25.91721,65.173985 -6.77745,18.69707 -16.86716,49.18539 -16.86716,50.96792 0,1.21014 0.42664,1.60122 2.27619,2.08644 5.11395,1.34168 37.35747,7.43706 52.95924,10.01145 14.22267,2.3469 23.67583,3.68912 57.35987,8.1445 5.75279,0.76091 10.6222,0.83642 10.6222,0.16473 z m 402.73306,-1.59047 C -72.010731,208.87621 2.9097579,195.38833 5.6378419,192.84125 6.3455231,192.18055 5.7158999,189.80087 1.6034703,177.59226 -7.230921,151.36551 -15.391379,129.64997 -26.642533,102.42783 -35.830674,80.197142 -37.84094,75.731873 -38.745223,75.545408 c -0.55976,-0.115387 -4.026481,5.785517 -10.162955,17.299009 -17.512121,32.857073 -38.110991,68.669233 -59.000122,102.574683 -6.00634,9.749 -10.73188,18.03085 -10.50116,18.40408 0.25286,0.40917 1.29851,0.54301 2.63327,0.33712 1.21767,-0.1878 5.76476,-0.76382 10.10468,-1.28006 z m -581.32912,-31.99989 c 0.33689,-0.4173 1.87046,-4.74988 3.40795,-9.6279 14.83642,-47.07212 35.84423,-101.6091 58.27982,-151.296466 l 4.62412,-10.2409529 -4.93291,-11.0034444 c -21.98502,-49.0404447 -38.2885,-90.8669957 -53.70308,-137.7752267 -3.73678,-11.37144 -6.91513,-20.08155 -7.39501,-20.2657 -1.11637,-0.42839 -10.46742,2.32099 -32.91483,9.67758 -45.87114,15.03314 -83.32932,31.6355 -117.14767,51.922659 -52.7727,31.657611 -85.04188,67.141812 -89.84002,98.7908036 -1.72462,11.3758284 1.71554,26.6693664 8.94311,39.7573714 25.90708,46.913698 97.14828,95.090646 188.51666,127.484596 10.86258,3.85124 39.58789,13.18931 40.86496,13.28442 0.37642,0.0279 0.96003,-0.29044 1.2969,-0.70774 z M 73.691899,175.03158 C 120.29446,160.20955 161.34482,142.72845 195.82011,123.02384 229.76289,103.62358 257.59651,81.925889 274.88095,61.391905 291.40344,41.763114 299.90594,21.801393 298.60869,5.6852118 294.0928,-50.416749 201.60854,-116.01485 71.629797,-155.30848 c -9.928235,-3.00138 -12.211826,-3.50882 -12.833133,-2.8517 -0.415723,0.43966 -2.5886,6.53537 -4.828609,13.54602 C 40.987668,-103.9893 21.925435,-55.100167 0.18222014,-6.6688299 -3.4543957,1.4314765 -6.4298252,8.3113834 -6.4298252,8.6198521 c 0,0.3084686 3.2783746,7.6754189 7.28531062,16.3709319 C 23.558947,74.260425 42.248978,121.15573 56.997506,165.85752 c 3.658649,11.08909 4.313098,12.74701 5.031341,12.7461 0.238605,-3.1e-4 5.487003,-1.60772 11.663052,-3.57204 z M -579.45353,-73.445432 c 17.98066,-33.866578 39.33402,-70.964238 59.07275,-102.628358 7.18539,-11.52653 10.70379,-17.70374 10.3087,-18.09883 -2.19556,-2.19556 -117.39065,17.53861 -120.49397,20.64193 -1.55404,1.55404 15.62262,51.20405 31.42265,90.82877 9.13558,22.911051 9.87071,24.582803 10.80983,24.582803 0.40859,0 4.40461,-6.896842 8.88004,-15.326315 z m 542.825948,10.773944 c 13.326368,-32.098748 23.884833,-59.853322 32.8476008,-86.344972 7.147829,-21.12728 7.6624896,-22.85061 7.0970245,-23.76554 -0.8511112,-1.37715 -34.8936183,-8.43459 -65.8927733,-13.66041 -20.451678,-3.44774 -54.3499,-8.30407 -55.02997,-7.88374 -0.27994,0.173 -0.50895,0.65386 -0.50895,1.06858 0,0.41472 4.18466,7.44551 9.29928,15.62397 19.116129,30.56743 42.427666,70.77987 59.884733,103.301159 6.048037,11.267142 9.00635,16.206465 9.633667,16.085068 0.497968,-0.09639 1.699187,-2.087232 2.669388,-4.424115 z M 20.404579,-232.27788 c 3.347814,-12.44497 9.445744,-44.73385 12.618079,-66.8134 4.051307,-28.19756 5.682209,-50.57719 5.706184,-78.30077 0.01942,-22.10057 -0.554478,-32.52311 -2.705625,-49.16561 -6.575869,-50.87518 -23.40301,-84.81056 -48.079833,-96.96301 -43.709557,-21.52537 -133.848564,14.8659 -221.986884,89.62142 -15.76062,13.36751 -39.45874,35.25441 -39.45874,36.4429 0,0.26573 3.07728,3.86462 6.83845,7.99754 32.50326,35.71599 65.33611,76.57069 96.8909,120.56355 6.22521,8.6791 9.68398,12.98676 10.57576,13.17145 0.72881,0.15094 5.83195,0.71772 11.34032,1.2595 31.30562,3.07912 66.067465,7.79375 98.373212,13.34202 15.500215,2.66204 54.4333642,10.34473 61.263256,12.08909 1.836122,0.46895 4.291793,0.80826 5.457078,0.75403 2.071936,-0.0964 2.14186,-0.1847 3.167843,-3.99871 z m -656.119319,1.81926 c 45.95559,-10.1615 109.52958,-19.92908 160.39073,-24.6426 6.86825,-0.63651 8.28775,-1.1999 10.28454,-4.0818 8.92064,-12.87474 32.08419,-43.65801 47.61427,-63.27709 15.79461,-19.95318 41.15884,-49.71794 57.53141,-67.51271 3.44839,-3.74793 6.26983,-7.2092 6.26983,-7.69172 0,-0.48253 -1.04638,-1.78631 -2.32529,-2.89731 -1.27892,-1.11099 -5.99062,-5.40202 -10.47046,-9.53562 -37.17793,-34.30448 -82.03353,-66.95107 -118.61602,-86.33055 -18.31389,-9.70173 -34.47509,-16.82649 -50.37957,-22.21012 -20.75003,-7.02383 -34.44452,-9.54623 -51.89703,-9.55897 -12.69945,-0.009 -15.44067,0.3645 -24.61027,3.35558 -17.12307,5.58547 -30.81464,20.29715 -40.2406,43.23881 -17.74004,43.17715 -20.72632,110.79747 -8.28799,187.6708 2.82348,17.45011 9.53404,49.73374 13.09004,62.97446 0.76234,2.83857 1.01585,2.84943 11.64641,0.49884 z m 321.54466,-31.9102 c 23.20191,0 50.44785,0.23949 60.54653,0.5322 16.64474,0.48245 18.36122,0.44145 18.36122,-0.43852 0,-3.97187 -74.99138,-94.4795 -78.28232,-94.4795 -2.20432,0 -45.1058,50.11593 -66.7692,77.99729 -4.15018,5.34144 -8.58334,11.04482 -9.85145,12.67418 -3.94812,5.07295 -4.75358,4.8557 15.75218,4.2488 9.93175,-0.29395 37.04112,-0.53445 60.24304,-0.53445 z"
           id="path4665"
           inkscape:connector-curvature="0" />
        <path
           style="fill:#ffffff;stroke-width:0.60698277"
           d="m -58.326851,603.4728 c -8.935879,-0.74149 -24.027959,-3.55401 -35.75001,-6.66218 -63.313949,-16.7883 -135.614639,-61.85689 -207.144219,-129.1232 -5.06327,-4.76148 -9.70668,-8.65455 -10.31871,-8.65121 -0.61208,0.006 -4.80026,3.45634 -9.3071,7.67348 -70.2701,65.7525 -143.48345,110.90255 -208.82156,128.77837 -19.70727,5.39171 -32.75443,7.36974 -51.57405,7.81897 -11.39457,0.27199 -15.91254,0.13263 -22.45836,-0.69263 -24.10367,-3.03904 -42.4307,-10.49449 -59.5189,-24.21236 -31.31535,-25.13898 -51.45647,-70.13801 -58.18603,-129.99835 -2.05877,-18.31309 -2.67449,-33.4561 -2.28272,-56.14159 0.79026,-45.76147 6.64331,-89.74732 18.97083,-142.56648 1.51145,-6.47608 2.66575,-12.33006 2.56511,-13.00897 -0.15302,-1.03212 -1.77355,-1.71528 -9.89471,-4.17119 -64.0118,-19.35765 -118.87907,-44.17256 -164.26605,-74.29287 -60.50131,-40.15063 -95.61547,-84.073607 -104.77623,-131.060628 -0.83323,-4.273827 -1.06231,-8.567501 -1.05249,-19.7269403 0.0145,-16.3810082 0.7231,-20.9321647 5.43452,-34.9015097 8.04389,-23.850052 21.15006,-43.664422 43.98631,-66.499963 19.74452,-19.743909 41.86469,-36.588959 69.83872,-53.183879 41.56983,-24.66031 95.58362,-47.24062 153.68104,-64.24592 4.23594,-1.23987 7.83179,-2.59334 7.99081,-3.00772 0.15901,-0.41438 -0.78993,-5.23029 -2.10876,-10.70202 -21.97562,-91.17549 -26.31283,-175.14964 -12.32155,-238.56223 7.02405,-31.83508 18.4991,-57.83189 34.25689,-77.60918 4.70028,-5.89922 14.88108,-15.95889 20.49516,-20.25131 11.58068,-8.85435 29.74752,-16.77037 45.43451,-19.79765 62.03993,-11.97247 145.20953,18.71805 234.51621,86.53912 17.90156,13.59477 42.48795,34.35669 59.12722,49.92994 3.97659,3.72183 7.7374,6.76697 8.35731,6.76697 0.61991,0 5.28742,-3.92535 10.3723,-8.72299 84.35925,-79.59421 170.46656,-128.62125 241.093796,-137.27193 9.185956,-1.12513 27.694681,-1.28152 36.134291,-0.30532 26.12696544,3.02205 47.779679,12.90765 65.177201,29.75677 14.12977,13.68442 23.579824,27.451 32.297067,47.04961 24.07494,54.12675 29.351565,131.13732 15.366801,224.27447 -2.749329,18.31012 -8.168349,46.44034 -12.043813,62.51922 -1.650872,6.84919 -1.61336,7.60381 0.417119,8.38893 0.918061,0.35499 7.951474,2.56257 15.629806,4.90573 102.923762,31.40876 183.506852,77.29739 227.570822,129.591749 33.10545,39.28903 43.3915,80.6837976 30.10453,121.151096 -11.25231,34.270247 -37.94456,67.284285 -79.8294,98.736125 -44.32182,33.28178 -105.22605,62.75668 -177.238969,85.77571 l -14.567587,4.65653 0.02732,2.38132 c 0.01517,1.30974 1.341371,8.1173 2.947204,15.12795 20.723602,90.47448 22.619932,177.97597 5.231342,241.3883 -7.334416,26.747 -17.25306,48.0456 -30.888564,66.32774 -5.847854,7.8407 -18.236918,20.12743 -25.587054,25.37571 -6.323,4.5148 -21.3781153,12.21862 -28.51380459,14.59065 -16.71490941,5.55632 -37.37241441,7.62504 -58.57383641,5.86576 z m 30.635452,-55.51574 c 13.613166,-2.3957 23.1432204,-7.52088 32.640012,-17.55357 37.423461,-39.53534 47.34332,-137.2819 25.305961,-249.35545 -2.092512,-10.64156 -5.493012,-26.04478 -6.91845,-31.33846 -0.824465,-3.06186 -1.115877,-3.09257 -9.833424,-1.03575 -18.2502117,4.306 -61.626657,12.22481 -89.735543,16.38216 -15.586285,2.30526 -54.953727,7.01253 -71.320477,8.52793 -5.67529,0.52552 -10.87689,1.07587 -11.55913,1.22313 -0.69658,0.15029 -2.67534,2.3387 -4.51335,4.99158 -30.9271,44.63861 -63.0822,85.83519 -97.96689,125.5136 -5.87019,6.67681 -10.6781,12.5853 -10.68429,13.13001 -0.0115,1.02555 14.01401,14.28206 28.81371,27.23349 62.76335,54.92527 125.81951,90.98909 176.63866,101.0253 11.464812,2.26417 30.020457,2.85974 39.133211,1.25603 z m -535.038121,-1.45172 c 59.21128,-10.66736 131.23404,-52.69551 201.06303,-117.32837 5.75875,-5.33022 10.47046,-10.11701 10.47046,-10.63731 0,-0.52031 -2.66314,-3.81726 -5.91808,-7.32659 -31.29761,-33.74375 -73.20352,-85.5598 -103.54507,-128.03221 -4.55935,-6.38218 -5.56609,-7.4549 -7.24837,-7.72325 -1.07449,-0.17141 -6.87017,-0.73906 -12.8793,-1.26143 -49.99957,-4.34666 -106.24625,-12.3297 -148.40729,-21.0634 -18.87958,-3.91091 -17.8609,-3.75752 -18.62413,-2.80462 -0.70094,0.87521 -4.88861,18.71583 -8.3363,35.51499 -11.77016,57.35113 -15.38098,112.57837 -10.31122,157.70899 4.31241,38.38869 15.48919,68.74541 31.62657,85.89954 9.33088,9.91882 19.79435,15.43229 34.0086,17.92001 7.37855,1.29135 28.83209,0.80358 38.1011,-0.86635 z m 253.82635,-170.83633 c 0.94234,-1.114 5.41216,-6.23541 9.93291,-11.38093 26.02899,-29.6261 66.75863,-81.21247 65.89586,-83.4608 -0.39957,-1.04127 -2.98234,-1.06373 -25.25327,-0.21978 -20.82188,0.78907 -89.54944,0.78926 -114.1028,3e-4 -15.82842,-0.50859 -19.25046,-0.47363 -19.9278,0.2037 -0.68564,0.68571 -0.007,1.88462 4.20397,7.42383 12.19009,16.03618 37.13387,46.71357 49.0493,60.32401 19.47596,22.2464 25.96697,29.13517 27.45286,29.13517 0.56959,0 1.80663,-0.91144 2.74897,-2.0255 z m 50.87899,-150.335 c 16.2763,-0.56401 45.07084,-1.92827 59.48431,-2.81835 3.33841,-0.20619 6.54449,-0.61845 7.12464,-0.91618 1.14951,-0.58992 10.19464,-14.14482 24.03258,-36.01502 23.13223,-36.5593 45.64279,-74.94974 65.66539,-111.988316 11.038228,-20.419083 32.768211,-63.230731 32.768211,-64.5588699 0,-1.8781261 -18.402261,-37.6136901 -35.363971,-68.6738481 -24.10905,-44.148316 -56.95167,-98.379826 -81.59979,-134.742046 -5.06193,-7.46764 -5.4711,-7.90511 -7.7712,-8.30937 -3.36693,-0.59174 -29.65991,-2.14033 -56.44939,-3.32472 -31.31321,-1.38439 -96.8302,-1.37808 -128.07337,0.0123 -23.40816,1.04174 -48.78047,2.49953 -55.02899,3.16176 l -3.4354,0.3641 -10.60084,15.88005 c -27.53798,41.25206 -52.27838,82.40669 -77.35554,128.677791 -9.81831,18.11619 -34.1566,66.3177238 -34.1566,67.6464091 0,1.2616139 25.27889,51.0317119 34.90494,68.7222859 19.08336,35.071044 41.32902,72.675924 61.58025,104.097544 6.59815,10.23761 25.36314,38.49527 26.12861,39.34626 0.56267,0.62556 22.29545,1.92189 47.34138,2.82399 10.51597,0.37876 20.34909,0.76097 21.85138,0.84941 8.01733,0.47193 93.89458,0.28656 108.9534,-0.2352 z m -67.81921,-98.95404 c -21.11226,-2.21403 -42.79769,-10.63555 -59.14167,-22.96768 -30.11048,-22.719425 -47.54666,-57.582148 -47.54666,-95.0667942 0,-47.3947318 27.94105,-89.9386888 71.42493,-108.7538658 50.59414,-21.89175 109.41787,-6.01677 142.35458,38.417795 15.35593,20.716565 22.94376,43.977662 22.94376,70.3360708 0,27.6021772 -8.639,52.6134482 -25.45752,73.7036112 -5.08542,6.377022 -15.68875,16.712117 -21.89454,21.340663 -15.23205,11.36078 -33.17088,18.86345 -52.80853,22.08647 -7.13757,1.17147 -22.80264,1.64534 -29.87435,0.90373 z M -508.0538,214.8153 c 0.17197,-0.44814 -4.56763,-8.57412 -10.53244,-18.05774 -20.27395,-32.23406 -40.24556,-66.70923 -59.23716,-102.255534 -6.85802,-12.836047 -9.67439,-17.567477 -10.45703,-17.567477 -1.21408,0 -4.81551,8.280762 -15.57516,35.811981 -10.99034,28.12145 -28.37346,78.12227 -28.37346,81.61339 0,0.73578 0.57182,1.50914 1.36571,1.84699 1.62011,0.68941 23.7281,5.09562 40.81959,8.13551 16.67884,2.96644 32.24035,5.34703 51.59354,7.89278 9.01369,1.18568 18.16395,2.40086 20.33392,2.7004 6.17967,0.85312 9.70514,0.81099 10.06249,-0.1203 z m 403.89975,-1.64359 c 19.163053,-2.37415 47.331363,-6.83111 70.410001,-11.14074 17.1279,-3.19844 39.5903895,-8.14547 40.3201041,-8.87986 1.4428588,-1.4522 -17.1476271,-53.08544 -32.8675701,-91.28656 -9.081919,-22.07002 -11.28296,-26.75095 -12.578443,-26.75095 -0.851961,0 -3.32317,4.11935 -10.195672,16.995518 -17.543319,32.869032 -39.424076,70.902872 -59.4953,103.416632 -5.6422,9.14001 -10.41291,17.0204 -10.60156,17.51206 -0.47672,1.24225 1.00371,2.02162 3.17228,1.66999 1.00152,-0.16237 6.32779,-0.8536 11.83616,-1.53609 z m -582.84523,-31.43218 c 0.42278,-0.26834 2.80123,-6.88786 5.28546,-14.71004 13.66877,-43.03933 33.15395,-93.660479 54.27865,-141.012176 3.70634,-8.307834 6.73879,-15.692872 6.73879,-16.4111756 0,-0.7183034 -1.67001,-4.9832072 -3.71113,-9.4776111 -21.40793,-47.1383423 -41.32102,-98.3488843 -56.34184,-144.8944373 -4.31725,-13.37801 -5.10275,-15.32631 -6.17912,-15.32631 -1.85432,0 -23.05693,6.52346 -41.20386,12.6773 -99.82009,33.85018 -174.43672,84.559395 -194.26956,132.024901 -6.6684,15.95933719 -6.7208,30.37014 -0.16998,46.743379 20.78122,51.941033 103.2802,108.31371 208.77103,142.65625 14.29184,4.6527 25.19474,8.12003 25.72938,8.18243 0.16692,0.0194 0.64939,-0.18416 1.07218,-0.45251 z M 84.506268,172.00304 C 154.07329,148.85132 210.53343,119.69321 250.04843,86.510855 259.7502,78.363933 274.42911,63.262262 280.38926,55.296281 300.9942,27.756926 304.31639,5.4502487 291.58536,-19.879203 271.55687,-59.72744 211.40287,-102.95537 131.65875,-134.80595 c -24.48301,-9.77874 -70.531394,-25.17692 -72.748034,-24.32631 -0.482187,0.18505 -3.255977,7.68472 -6.448889,17.43662 C 38.58608,-99.316373 21.677361,-55.916134 1.4550023,-10.774461 -1.6108676,-3.9307307 -4.8150082,3.2475083 -5.6653304,5.1771672 l -1.5460458,3.5084818 2.5814977,5.59626 C 22.112325,72.254954 38.147596,111.7566 53.922531,158.52135 c 6.225398,18.45501 7.127435,20.6898 8.351415,20.6898 0.315207,0 10.319739,-3.24366 22.232322,-7.20811 z M -577.96771,-75.114635 c 18.7091,-35.103995 37.80366,-68.238105 58.12084,-100.854985 5.95943,-9.56717 10.83532,-17.67704 10.83532,-18.02192 0,-0.34488 -0.25746,-0.78617 -0.57214,-0.98066 -0.90934,-0.562 -30.98762,3.64491 -56.71806,7.93289 -21.36593,3.56063 -48.59301,8.80648 -60.46446,11.6497 -4.47791,1.07246 -4.55104,1.12087 -4.47101,2.95964 0.25932,5.95822 24.28297,73.048965 37.23721,103.992146 4.17173,9.964836 4.75485,11.037981 5.87477,10.811698 0.5257,-0.106222 4.98944,-7.791571 10.15753,-17.488509 z m 542.085685,11.98791 c 14.302881,-34.623366 24.967386,-62.824245 34.0188346,-89.958475 4.493372,-13.47008 6.1123771,-19.08047 5.7183846,-19.81659 -0.7292291,-1.36259 -13.7817863,-4.37789 -41.7431152,-9.64316 -27.145361,-5.11162 -79.126879,-13.12853 -80.324759,-12.38818 -1.24929,0.77208 0.0616,3.34153 8.96507,17.57304 18.887669,30.19035 42.594473,71.08239 59.099973,101.941964 11.561018,21.615081 10.715067,20.886155 14.265612,12.291401 z M 19.894471,-228.38958 c 0.448196,-1.16807 3.588421,-14.56553 5.190006,-22.14308 3.489301,-16.50848 7.906436,-43.19038 9.99822,-60.39478 8.012961,-65.90504 4.864117,-122.32995 -9.057275,-162.29958 -14.283883,-41.01009 -36.802458,-58.69922 -72.405335,-56.8768 -24.68259,1.26344 -49.904241,8.84285 -81.944437,24.62527 -39.6563,19.53401 -79.59225,47.34691 -121.20207,84.40979 -12.19823,10.86524 -24.5828,22.7084 -24.5828,23.50808 0,0.33509 4.27704,5.35155 9.5045,11.14767 32.2964,35.80965 65.99905,77.95986 96.61405,120.83013 3.74411,5.24292 7.08464,9.70385 7.42334,9.91317 0.33863,0.20933 8.04877,1.17246 17.13361,2.1403 54.299337,5.78475 112.631837,15.15736 154.302903,24.79272 6.230375,1.44061 8.571143,1.53064 9.025288,0.34711 z m -657.120821,-1.23961 c 35.35521,-7.71917 74.1431,-14.38062 114.55769,-19.67421 11.43505,-1.49779 52.79564,-6.08512 54.86504,-6.08512 0.31209,0 2.69149,-2.93628 5.28756,-6.52506 35.94321,-49.68777 70.32854,-92.2838 103.55908,-128.28745 3.26703,-3.53961 5.94,-6.85918 5.94,-7.37682 0,-0.96608 -19.18697,-18.7994 -31.46714,-29.24713 -66.56616,-56.63314 -133.85339,-93.34026 -184.92222,-100.8804 -10.61746,-1.56764 -27.83088,-1.44906 -35.24105,0.24276 -15.16225,3.4617 -26.32221,10.80097 -35.75595,23.51466 -28.40025,38.27454 -35.79667,119.12385 -19.70216,215.36167 2.67022,15.9667 11.18915,55.66193 12.69329,59.14629 0.74573,1.7275 1.46852,1.71408 10.18586,-0.18919 z m 296.04553,-32.36559 c 13.68746,-0.20572 39.49941,-0.1127 57.35987,0.20672 43.83326,0.7839 49.31741,0.77886 49.59335,-0.0457 0.6247,-1.86688 -42.77402,-55.68363 -64.51529,-80.00233 -5.64731,-6.31682 -11.09722,-12.43115 -12.11088,-13.58742 -2.9097,-3.31902 -1.42775,-4.59952 -23.07379,19.93705 -24.57309,27.85448 -59.15028,70.86536 -59.15028,73.57759 0,1.23229 0.13717,1.24008 13.50536,0.76651 7.42795,-0.26314 24.7042,-0.64675 38.39166,-0.85247 z"
           id="path4663"
           inkscape:connector-curvature="0" />
      </g>
    </g>
  </g>
  <path
     d="M 125,0 H 5.0000001 C 2.2385801,0 2.0625007e-8,2.23858 2.0625007e-8,5 V 27 C 2.0625007e-8,29.7614 2.2385801,32 5.0000001,32 H 125 c 2.761,0 5,-2.2386 5,-5 V 5 c 0,-2.76142 -2.239,-5 -5,-5 z"
     id="path10"
     style="fill:url(#linearGradient38)"
     inkscape:connector-curvature="0" />
</svg>
